{"glyphs":{"0":{"ha":768,"x_min":64,"x_max":747,"o":"m 694 586 l 694 586 q 737 509 726 557 q 747 413 747 461 q 743 331 747 364 l 743 331 l 738 297 q 647 130 715 192 q 517 39 579 68 l 517 39 q 444 -14 489 -6 l 444 -14 q 319 26 385 -29 l 319 26 q 175 94 236 51 q 86 169 114 138 l 86 169 q 65 194 64 193 l 65 194 q 69 193 67 196 l 69 193 l 94 171 q 165 120 119 147 q 268 81 210 93 l 268 81 q 224 163 243 117 q 194 263 204 208 l 194 263 q 182 447 169 360 q 238 582 194 535 l 238 582 q 225 559 231 571 q 214 536 219 547 l 214 536 q 244 563 226 551 q 281 582 261 574 l 281 582 q 325 629 297 608 l 325 629 q 401 673 361 660 q 482 686 442 686 l 482 686 q 378 703 453 703 l 378 703 l 406 707 q 467 706 432 710 q 529 681 503 701 l 529 681 q 619 645 569 672 q 694 586 668 618 z m 197 451 l 197 451 q 198 382 196 418 q 208 307 200 346 l 208 307 q 266 165 226 226 q 353 76 306 104 l 353 76 q 401 83 375 78 q 449 99 426 89 l 449 99 l 479 113 q 540 161 508 125 l 540 161 q 550 185 547 172 q 554 213 553 197 l 554 213 q 414 210 485 185 l 414 210 q 560 239 489 199 l 560 239 q 561 264 561 251 l 561 264 l 561 286 q 563 265 563 276 q 564 244 563 254 l 564 244 q 570 249 568 247 q 576 253 572 251 l 576 253 q 591 265 585 260 q 603 276 597 271 l 603 276 q 608 299 606 288 q 611 322 610 310 l 611 322 q 602 453 618 401 q 568 529 586 504 l 568 529 l 549 553 q 505 504 535 528 q 450 465 475 481 l 450 465 l 424 449 l 393 438 q 320 417 363 426 q 242 413 278 408 q 197 451 207 418 z m 529 568 l 529 568 l 500 583 q 415 600 469 599 q 288 558 361 601 l 288 558 q 256 511 271 538 l 256 511 q 328 497 282 503 q 427 503 374 490 q 529 568 481 517 z m 539 606 l 539 606 q 344 603 439 656 l 344 603 q 414 614 385 613 l 414 614 l 442 615 q 539 583 463 618 l 539 583 l 536 589 l 538 594 q 539 606 539 599 z m 608 550 l 608 550 q 564 590 592 569 l 564 590 q 563 572 563 586 l 563 572 l 561 571 q 619 532 589 558 l 619 532 q 608 550 617 539 z m 256 539 l 256 539 q 231 521 243 533 l 231 521 l 235 519 q 246 514 239 517 l 246 514 q 251 527 249 521 q 256 539 254 533 z m 564 214 l 564 214 l 564 201 q 563 188 564 194 l 563 188 q 574 205 569 196 q 583 222 578 214 l 583 222 q 574 218 578 219 q 564 214 569 217 z "},"1":{"ha":761,"x_min":53,"x_max":642,"o":"m 601 132 l 601 132 q 636 92 642 121 l 636 92 l 631 61 l 615 39 q 540 3 599 17 q 353 13 482 -11 l 353 13 q 303 3 318 0 l 303 3 q 246 13 274 6 q 194 31 218 21 l 194 31 q 119 14 151 29 q 81 -33 86 -1 l 81 -33 l 86 -44 q 118 -65 90 -57 q 167 -57 146 -74 l 167 -57 q 181 -42 176 -49 l 181 -42 l 179 -54 q 118 -74 174 -78 l 118 -74 q 68 -37 71 -71 l 68 -37 l 65 -6 l 74 18 q 129 68 81 42 l 129 68 q 67 121 86 97 l 67 121 q 54 139 53 138 l 54 139 q 57 138 54 139 l 57 138 l 79 117 q 142 75 101 94 l 142 75 q 207 99 168 88 q 303 115 246 110 l 303 115 l 281 135 l 282 135 q 325 162 307 142 q 343 208 343 182 l 343 208 l 343 343 q 326 332 333 338 l 326 332 l 318 325 l 293 317 q 233 301 267 307 q 173 305 199 296 q 149 349 147 314 l 149 349 q 176 405 149 385 q 240 434 204 425 q 304 446 276 443 l 304 446 l 332 447 q 343 446 338 447 l 343 446 l 343 508 q 318 511 332 511 l 318 511 l 288 511 l 304 514 q 343 514 321 517 l 343 514 q 338 535 340 531 l 338 535 l 338 539 q 336 543 338 542 q 335 547 335 544 l 335 547 q 182 488 238 492 q 104 497 126 483 l 104 497 l 81 511 l 69 526 q 56 563 58 540 q 81 611 54 586 l 81 611 q 129 638 110 639 q 158 628 149 638 l 158 628 l 167 619 q 132 629 156 629 l 132 629 q 85 601 104 629 l 85 601 q 71 563 67 575 l 71 563 l 75 549 q 149 534 107 521 q 235 582 190 547 q 317 657 279 617 q 379 726 356 697 l 379 726 l 403 756 q 458 687 426 697 q 513 685 489 676 l 513 685 l 536 693 q 477 646 506 668 q 421 604 449 624 l 421 604 l 421 417 q 510 340 469 390 q 543 213 550 290 l 543 213 q 511 129 535 165 q 460 69 488 93 l 460 69 q 562 53 513 54 q 625 90 611 51 l 625 90 l 624 101 q 600 124 622 113 l 600 124 q 558 129 578 139 l 558 129 q 540 118 546 124 l 540 118 l 546 128 q 601 132 556 147 z m 176 379 l 176 379 l 229 364 q 343 378 282 349 l 343 378 l 343 435 q 271 429 313 439 q 176 379 229 419 z m 457 232 l 457 232 q 447 334 461 294 q 421 390 432 374 l 421 390 l 421 250 q 447 188 421 201 l 447 188 q 457 232 456 208 z m 401 119 l 411 119 q 425 138 418 126 q 438 164 432 150 l 438 164 l 421 144 l 401 119 z m 181 -42 l 181 -42 l 183 -31 q 181 -42 185 -36 z m 540 118 l 536 108 q 540 118 536 113 l 540 118 z m 168 618 l 167 619 q 168 618 167 619 l 168 618 z "},"2":{"ha":701,"x_min":32,"x_max":717,"o":"m 669 482 l 676 439 q 708 369 717 407 q 676 306 699 332 l 676 306 l 653 279 q 691 355 689 325 q 685 400 693 385 l 685 400 l 688 375 q 674 390 686 383 l 674 390 q 660 400 669 397 q 643 404 651 403 l 643 404 q 626 357 635 365 l 626 357 l 603 329 q 543 274 579 301 q 468 249 507 247 l 468 249 l 347 108 q 422 88 381 103 l 422 88 q 555 83 492 76 q 631 138 618 90 l 631 138 l 628 151 q 594 174 624 164 l 594 174 q 544 171 565 185 l 544 171 q 526 156 532 163 l 526 156 l 531 168 q 596 182 539 192 l 596 182 q 646 139 644 172 l 646 139 l 646 106 l 633 79 q 563 27 621 53 q 367 0 504 1 l 367 0 l 367 -8 l 363 -7 q 350 0 358 -6 l 350 0 q 278 3 317 0 q 197 10 240 6 l 197 10 l 211 13 q 242 26 225 14 l 242 26 l 144 31 l 129 85 q 83 81 104 88 q 51 53 63 74 l 51 53 l 53 42 q 76 14 53 29 l 76 14 q 121 7 99 -1 l 121 7 q 135 14 129 10 l 135 14 l 131 7 q 74 6 118 -12 l 74 6 q 39 53 32 24 l 39 53 l 46 82 l 58 101 q 118 132 71 121 l 118 132 l 111 157 q 134 144 122 150 q 160 136 146 139 l 160 136 q 179 138 168 138 l 179 138 l 200 138 q 229 156 218 140 l 229 156 l 440 390 q 451 414 451 407 l 451 414 l 453 415 l 451 417 q 436 490 460 451 l 436 490 l 436 492 l 619 482 l 622 485 l 625 483 q 590 535 614 504 q 517 593 565 567 l 517 593 q 406 624 454 628 q 329 604 357 619 l 329 604 l 301 589 q 222 506 246 553 q 192 413 197 458 q 192 339 188 368 l 192 339 l 194 308 q 194 306 194 306 l 194 306 q 185 339 192 304 l 185 339 q 180 455 175 382 q 225 599 185 528 l 225 599 q 280 649 235 615 q 396 701 325 683 q 551 681 467 718 l 551 681 q 633 590 613 646 q 653 482 654 535 l 653 482 l 669 482 z m 582 376 l 488 268 q 595 335 565 296 q 632 403 625 375 l 632 403 q 582 376 604 400 l 582 376 z m 135 14 l 135 14 l 143 26 q 135 14 142 19 z m 526 156 l 526 156 l 522 143 q 526 156 522 149 z "},"3":{"ha":893,"x_min":10,"x_max":918,"o":"m 869 638 l 869 638 q 913 590 908 618 q 910 543 918 563 l 910 543 l 901 522 l 890 506 q 843 475 879 489 l 843 475 l 850 440 q 832 453 840 447 q 813 465 824 460 l 813 465 q 710 457 772 454 l 710 457 q 708 456 708 457 l 708 456 l 521 276 q 635 174 582 240 q 679 8 689 108 l 679 8 q 615 -133 661 -78 q 516 -219 569 -189 q 418 -262 463 -250 q 357 -272 374 -274 l 357 -272 q 213 -235 278 -265 q 102 -169 147 -206 q 38 -110 57 -133 l 38 -110 q 24 -92 22 -93 l 24 -92 q 28 -93 25 -92 l 28 -93 l 57 -118 q 135 -172 85 -144 q 254 -209 186 -200 q 401 -186 322 -218 l 401 -186 l 438 -168 q 513 -102 474 -150 q 560 35 551 -54 l 560 35 q 543 190 571 135 q 503 260 515 246 l 503 260 l 479 236 q 422 140 435 189 q 429 74 410 90 l 429 74 l 210 100 l 208 100 l 151 107 l 139 238 q 154 217 143 226 l 154 217 q 155 215 154 215 q 156 214 156 215 l 156 214 q 208 278 168 256 q 292 310 247 300 q 367 321 338 319 l 367 321 l 439 390 q 396 404 421 399 q 335 407 371 410 l 335 407 l 374 413 q 451 403 413 418 l 451 403 l 540 489 q 451 519 500 501 q 347 558 403 536 l 347 558 q 216 581 282 575 q 101 572 150 586 q 36 510 53 557 l 36 510 l 40 492 q 86 451 43 472 l 86 451 q 160 451 126 433 l 160 451 q 192 479 185 465 l 192 479 l 190 472 q 162 440 185 454 q 85 440 139 426 l 85 440 q 23 481 36 453 q 14 533 10 510 l 14 533 l 17 557 l 28 579 q 77 629 38 601 q 203 674 117 657 q 439 679 289 690 l 439 679 q 440 686 439 682 q 440 693 440 690 l 440 693 l 447 689 q 463 678 453 685 l 463 678 q 567 665 511 674 q 688 646 624 657 l 688 646 l 661 643 q 607 619 633 640 l 607 619 l 668 617 l 821 597 l 833 528 q 894 567 874 532 l 894 567 l 896 585 q 864 626 896 601 l 864 626 q 801 643 833 651 l 801 643 q 767 622 776 635 l 767 622 l 771 631 q 803 652 779 644 q 869 638 826 660 z m 267 225 l 350 306 q 276 283 317 300 q 188 231 235 267 l 188 231 l 204 224 q 247 210 221 217 l 247 210 q 257 217 253 214 q 267 225 261 221 l 267 225 z m 599 611 l 599 611 q 594 606 597 610 q 589 600 592 603 l 589 600 l 596 597 q 603 592 600 594 l 603 592 q 601 602 601 597 q 599 611 601 607 z m 192 479 l 192 479 l 194 490 q 192 479 194 485 z m 767 622 l 763 615 q 767 622 764 619 l 767 622 z "},"4":{"ha":761,"x_min":24,"x_max":807,"o":"m 760 156 l 760 156 q 803 107 807 139 l 803 107 l 797 74 l 779 44 q 679 4 760 15 l 679 4 q 728 -97 679 -81 l 728 -97 l 579 -275 l 465 -171 l 467 -171 q 532 -132 506 -164 q 558 -58 558 -100 l 558 -58 l 558 4 q 382 35 482 11 l 382 35 q 279 35 328 42 l 279 35 q 212 -9 243 4 q 157 -25 181 -22 l 157 -25 q 156 -32 157 -29 q 156 -37 156 -35 l 156 -37 l 161 -51 q 199 -75 165 -65 l 199 -75 q 254 -67 231 -85 l 254 -67 q 272 -44 268 -56 l 272 -44 l 272 -47 q 256 -74 271 -61 q 199 -85 240 -87 l 199 -85 q 151 -62 164 -82 q 135 -29 138 -43 l 135 -29 q 103 -25 114 -29 l 103 -25 l 92 -21 l 71 -8 q 37 31 50 4 q 43 100 24 58 l 43 100 q 90 156 67 147 q 131 157 114 164 l 131 157 l 138 154 q 97 149 121 158 l 97 149 q 53 92 64 136 l 53 92 q 56 36 43 50 l 56 36 l 67 21 q 149 31 104 7 l 149 31 q 169 53 156 42 q 204 78 182 65 l 204 78 q 247 139 226 106 q 285 207 267 172 l 285 207 q 275 196 279 201 l 275 196 l 271 190 q 297 245 285 219 q 322 294 310 271 l 322 294 q 358 390 346 350 l 358 390 l 369 429 q 381 419 376 424 q 390 408 385 414 l 390 408 q 514 569 451 506 q 672 725 576 632 l 672 725 l 753 628 q 778 592 769 615 q 772 532 788 568 l 772 532 q 721 472 750 476 q 679 474 692 468 l 679 474 q 726 484 697 468 q 761 539 754 500 l 761 539 q 757 596 769 582 l 757 596 l 743 610 q 710 613 725 615 l 710 613 q 688 569 696 600 q 679 474 679 539 l 679 474 l 679 65 q 746 69 717 61 q 789 107 775 78 l 789 107 l 788 119 q 758 149 785 132 l 758 149 q 708 151 731 163 l 708 151 q 692 140 697 146 l 692 140 l 697 150 q 760 156 708 174 z m 435 135 l 435 135 l 435 147 l 440 144 q 453 138 444 140 l 453 138 q 503 140 476 139 q 558 140 531 140 l 558 140 l 558 413 q 526 353 543 382 q 493 300 508 325 l 493 300 q 469 221 478 253 l 469 221 l 461 188 q 436 211 451 199 l 436 211 q 403 168 418 188 q 371 129 388 149 l 371 129 q 401 133 386 132 q 435 135 417 133 z m 550 442 l 550 447 q 537 415 543 431 q 524 383 531 400 l 524 383 q 547 400 538 390 q 558 414 556 410 l 558 414 q 553 439 556 431 l 553 439 l 553 440 l 550 442 z m 556 93 l 556 93 q 558 92 557 93 l 558 92 l 558 101 q 557 98 557 100 q 556 93 557 96 z m 692 140 l 685 126 q 692 140 686 133 l 692 140 z m 272 -44 l 272 -44 l 274 -33 q 272 -44 275 -39 z m 147 150 l 138 154 q 147 150 143 153 l 147 150 z "},"5":{"ha":838,"x_min":-1,"x_max":842,"o":"m 804 658 l 804 658 q 838 621 835 643 q 836 583 842 599 l 836 583 l 829 567 l 814 550 q 754 519 799 532 q 622 520 710 507 q 389 594 535 533 l 389 594 l 397 589 q 343 569 365 586 q 321 532 321 553 l 321 532 l 319 433 l 317 339 q 364 346 344 344 l 364 346 l 383 346 q 417 340 390 347 q 479 315 444 332 l 479 315 l 478 319 l 478 350 q 444 409 476 381 q 319 433 413 438 l 319 433 q 358 438 326 435 q 426 434 389 442 q 488 397 463 426 q 506 303 513 367 l 506 303 l 503 301 q 628 195 568 265 q 678 17 689 125 l 678 17 q 578 -194 650 -129 q 416 -266 507 -258 q 236 -245 325 -274 q 82 -172 147 -217 q -1 -87 17 -126 l -1 -87 l 29 -114 q 111 -171 58 -142 q 235 -210 164 -200 q 389 -186 306 -219 l 389 -186 l 426 -168 q 505 -100 464 -150 q 554 44 546 -50 l 554 44 q 547 180 563 126 q 511 260 531 233 l 511 260 l 492 285 q 447 233 478 258 q 389 192 415 208 l 389 192 l 363 175 l 324 161 q 239 140 285 146 l 239 140 l 219 124 l 203 139 q 149 152 171 139 q 128 203 126 165 l 128 203 q 155 272 128 244 q 217 315 182 299 l 217 315 l 221 497 q 174 501 203 494 l 174 501 q 126 533 136 511 q 118 575 115 556 l 118 575 l 119 594 l 128 613 q 169 653 136 631 q 270 689 201 675 q 460 693 339 703 l 460 693 l 460 704 l 465 701 q 478 690 469 697 l 478 690 q 657 665 554 686 l 657 665 l 629 661 q 579 629 600 657 l 579 629 q 720 574 647 594 q 824 603 793 554 l 824 603 l 825 617 q 800 650 825 631 l 800 650 q 749 664 774 671 l 749 664 q 726 653 733 658 l 726 653 l 735 665 q 804 658 751 686 z m 371 233 l 372 233 q 422 258 397 243 q 472 299 447 272 l 472 299 l 431 319 q 315 325 389 339 l 315 325 l 315 290 q 321 269 315 279 l 321 269 l 321 268 q 371 233 336 246 l 371 233 z m 175 510 l 175 510 q 221 507 199 500 l 221 507 q 183 554 218 544 l 183 554 l 221 588 l 261 615 q 183 605 218 618 q 135 558 147 592 l 135 558 l 139 543 q 175 510 143 526 z m 217 229 l 217 286 l 167 250 l 181 244 q 217 229 193 238 l 217 229 z m 726 653 l 726 653 l 718 643 q 726 653 719 649 z "},"6":{"ha":646,"x_min":28,"x_max":661,"o":"m 467 492 l 465 489 q 573 399 522 458 q 614 246 624 340 l 614 246 q 531 88 593 143 q 408 14 469 33 q 325 -6 346 -6 l 325 -6 q 160 44 231 1 q 54 126 89 88 l 54 126 q 29 157 28 156 l 29 157 q 32 156 29 157 l 32 156 l 42 147 q 69 122 51 138 l 69 122 q 46 192 57 139 q 67 342 35 244 q 213 594 99 440 l 213 594 q 201 606 207 597 l 201 606 l 229 617 q 306 710 265 661 q 397 813 347 758 l 397 813 l 381 776 q 381 692 363 739 l 381 692 q 503 772 444 726 q 593 867 563 817 q 599 965 624 917 l 599 965 l 582 978 q 522 974 564 989 l 522 974 q 469 922 479 960 l 469 922 q 465 881 461 896 l 465 881 l 464 886 q 461 930 454 903 q 515 985 468 957 l 515 985 q 585 998 557 1010 q 629 965 614 986 l 629 965 l 643 944 l 653 922 q 654 852 661 899 q 602 735 647 806 q 450 569 557 664 l 450 569 q 467 492 474 538 l 467 492 z m 508 265 l 508 265 q 501 380 515 335 q 471 447 488 425 l 471 447 l 454 469 q 416 427 443 449 q 367 392 389 406 l 367 392 l 344 378 l 293 358 q 194 344 240 339 l 194 344 q 118 215 143 281 q 131 100 93 149 l 131 100 l 153 93 q 218 113 175 85 l 218 113 q 265 185 263 142 l 265 185 q 257 232 267 215 l 257 232 l 263 226 q 276 180 276 210 q 229 106 275 150 l 229 106 q 150 72 190 65 l 150 72 q 247 47 192 53 q 365 67 303 42 l 365 67 l 397 83 q 465 143 429 100 q 508 265 500 186 z m 276 429 l 276 429 q 261 417 271 426 l 261 417 q 349 426 301 414 q 439 483 396 439 l 439 483 l 424 493 q 378 504 407 501 l 378 504 q 329 467 354 486 q 276 429 304 449 z m 443 494 l 443 500 l 444 517 q 433 553 446 533 l 433 553 q 390 517 417 535 l 390 517 q 416 508 403 514 q 443 494 429 501 l 443 494 z m 465 881 l 465 881 l 472 868 q 465 881 468 874 z m 257 232 l 257 232 l 247 242 q 257 232 253 238 z "},"7":{"ha":900,"x_min":56,"x_max":951,"o":"m 904 650 l 904 650 q 947 603 942 631 q 944 557 951 576 l 944 557 l 936 536 l 919 515 q 853 481 903 494 l 853 481 l 903 435 q 806 419 847 439 q 754 364 764 400 l 754 364 l 744 306 q 808 222 781 271 q 829 108 836 174 l 829 108 q 771 -17 814 32 q 679 -92 728 -67 l 679 -92 q 747 -153 700 -131 l 747 -153 l 514 -258 l 514 -260 l 454 -285 l 351 -174 q 365 -180 358 -176 q 382 -186 372 -183 l 382 -186 q 467 -175 415 -192 q 529 -125 518 -158 l 529 -125 q 395 -67 458 -104 q 297 0 332 -29 l 297 0 q 269 24 268 22 l 269 24 q 271 22 269 24 l 271 22 q 336 -12 289 7 q 438 -42 383 -31 q 534 -44 493 -53 q 579 4 575 -35 l 579 4 l 642 278 q 585 243 626 261 q 494 215 543 225 q 411 214 446 206 q 376 260 376 222 l 376 260 q 410 325 376 300 q 490 364 443 350 q 576 383 536 378 q 629 389 617 389 l 629 389 q 657 415 658 404 l 657 415 q 653 422 656 419 l 653 422 q 602 443 639 436 q 531 447 565 450 l 531 447 l 539 449 l 535 449 l 538 450 q 544 450 539 450 l 544 450 l 603 483 l 622 493 q 547 547 613 514 q 392 599 482 579 q 218 607 303 619 q 83 525 133 594 l 83 525 l 86 506 q 129 467 89 486 l 129 467 q 204 467 171 449 l 204 467 q 235 494 226 479 l 235 494 l 233 489 q 205 458 228 471 q 128 457 182 444 l 128 457 q 69 497 82 469 q 58 547 56 524 l 58 547 l 61 569 l 72 592 q 122 642 82 614 q 246 686 161 669 q 478 692 331 703 l 478 692 q 479 706 479 697 l 479 706 l 486 701 q 503 690 493 697 l 503 690 q 606 678 551 685 q 725 658 661 671 l 725 658 l 679 654 q 610 615 633 650 l 610 615 q 683 581 642 597 q 760 551 725 564 l 760 551 l 768 558 l 778 550 q 867 540 826 536 q 929 578 908 544 l 929 578 l 929 597 q 901 642 929 617 l 901 642 q 839 656 869 665 l 839 656 q 803 635 813 647 l 803 635 l 808 644 q 839 665 817 658 q 904 650 861 672 z m 731 281 l 731 281 l 686 -1 q 746 10 714 -17 q 797 87 778 38 q 803 190 815 136 q 731 281 792 243 z m 400 297 l 400 297 q 424 256 392 271 q 507 245 457 242 q 603 278 557 249 l 603 278 q 640 328 643 311 q 614 351 636 344 q 572 360 592 358 l 572 360 q 497 352 542 363 q 400 297 453 342 z m 235 494 l 235 494 l 238 506 q 235 494 238 500 z m 803 635 l 803 635 l 800 631 q 803 635 801 633 z "},"8":{"ha":690,"x_min":65,"x_max":676,"o":"m 515 442 l 514 439 q 609 358 564 413 q 646 222 654 304 l 646 222 q 572 82 628 131 q 462 16 517 33 q 389 -1 407 -1 l 389 -1 q 288 24 335 4 q 206 67 242 44 l 206 67 q 176 85 186 74 l 176 85 l 165 94 l 163 99 q 156 110 158 103 l 156 110 q 129 138 136 126 l 129 138 q 125 144 125 143 l 125 144 q 128 143 126 144 l 128 143 l 133 138 q 147 124 138 132 l 147 124 q 147 245 133 160 q 275 486 161 331 l 275 486 q 271 492 274 489 q 265 496 268 494 l 265 496 l 271 499 q 285 503 275 500 l 285 503 q 219 533 246 504 q 176 600 192 563 q 153 667 160 638 l 153 667 l 146 694 q 158 781 139 714 l 158 781 l 154 779 l 129 775 q 85 738 104 769 q 81 628 65 707 l 81 628 l 74 654 q 65 713 65 679 q 86 773 65 746 q 164 804 107 800 l 164 804 l 165 801 q 235 922 185 863 q 375 988 285 982 l 375 988 q 542 933 479 985 q 635 826 606 882 q 668 750 665 769 l 668 750 q 647 582 676 658 q 586 465 617 506 l 586 465 q 561 435 563 435 l 561 435 q 561 439 560 436 l 561 439 l 581 469 q 615 549 599 499 q 626 663 632 600 l 626 663 q 585 591 613 632 q 507 501 557 550 l 507 501 q 515 442 521 476 l 515 442 z m 551 244 l 551 244 q 532 381 561 336 l 532 381 l 503 425 q 449 369 489 394 l 449 369 l 407 343 l 367 329 q 285 314 325 314 l 285 314 q 203 194 232 256 q 211 88 175 133 l 211 88 l 229 82 q 281 97 246 75 l 281 97 q 319 157 317 121 l 319 157 q 315 192 321 179 l 315 192 l 318 189 q 328 151 329 175 q 289 92 328 126 l 289 92 q 249 65 267 69 l 249 65 q 329 50 283 51 q 426 67 375 49 l 426 67 l 456 82 q 514 134 483 96 q 551 244 544 172 z m 371 882 l 371 882 q 224 835 268 875 l 224 835 l 179 794 q 228 765 203 788 q 272 724 254 743 l 272 724 l 289 704 l 314 661 q 343 574 338 617 l 343 574 q 383 618 363 596 q 426 665 404 640 l 426 665 l 411 635 q 414 567 396 604 l 414 567 q 538 653 479 603 q 597 756 597 703 l 597 756 q 592 766 594 761 q 586 776 589 771 l 586 776 l 582 783 q 571 800 578 790 l 571 800 q 529 796 557 803 l 529 796 q 486 754 494 783 l 486 754 q 483 717 478 729 l 483 717 l 479 725 q 477 760 471 739 q 522 804 483 782 l 522 804 q 557 817 539 815 l 557 817 q 488 863 533 840 q 371 882 443 886 z m 258 528 l 258 528 l 265 572 q 255 674 271 615 q 172 776 239 733 l 172 776 l 164 743 q 169 651 154 708 q 258 528 185 594 z m 453 453 l 453 453 q 410 416 433 435 q 358 376 386 397 l 358 376 q 423 392 389 379 q 488 438 457 404 l 488 438 l 479 443 q 453 453 471 449 z m 494 449 l 494 451 l 496 463 q 492 486 496 472 l 492 486 q 478 475 486 481 q 464 463 471 469 l 464 463 q 479 456 471 460 q 494 449 488 453 l 494 449 z m 315 192 l 315 192 l 307 201 q 315 192 313 197 z m 483 717 l 483 717 l 486 711 q 483 717 485 714 z "},"9":{"ha":647,"x_min":22,"x_max":657,"o":"m 217 239 l 218 242 q 111 332 163 272 q 69 485 60 392 l 69 485 q 152 642 90 588 q 276 717 214 697 q 358 736 339 738 l 358 736 q 524 686 453 729 q 629 606 594 643 l 629 606 q 654 574 657 576 l 654 574 q 651 575 654 574 l 651 575 l 642 585 q 614 608 632 593 l 614 608 q 638 540 628 592 q 617 389 649 488 q 471 136 585 290 l 471 136 q 482 125 476 133 l 482 125 l 475 124 q 454 114 468 121 l 454 114 q 378 21 419 69 q 286 -82 336 -28 l 286 -82 l 304 -44 q 303 39 322 -8 l 303 39 q 181 -41 240 4 q 91 -135 121 -86 q 85 -235 61 -185 l 85 -235 l 103 -246 q 161 -243 119 -258 l 161 -243 q 215 -190 206 -228 l 215 -190 q 218 -150 222 -165 l 218 -150 l 221 -154 q 223 -199 229 -172 q 168 -254 217 -225 l 168 -254 q 98 -267 126 -279 q 56 -233 69 -254 l 56 -233 l 40 -214 l 32 -190 q 29 -122 22 -168 q 81 -4 36 -75 q 233 161 126 67 l 233 161 q 217 239 210 193 l 217 239 z m 175 465 l 175 465 q 182 351 168 397 q 213 283 196 306 l 213 283 l 229 261 q 268 304 242 283 q 317 339 294 325 l 317 339 l 339 353 l 392 372 q 489 386 443 392 l 489 386 q 566 517 542 451 q 553 631 590 582 l 553 631 l 532 639 q 465 618 510 646 l 465 618 q 419 547 421 589 l 419 547 q 431 496 418 513 l 431 496 l 422 506 q 408 551 407 521 q 454 625 408 582 l 454 625 q 533 658 493 665 l 533 658 q 436 683 492 678 q 318 664 381 689 l 318 664 l 286 647 q 219 588 254 631 q 175 465 185 546 z m 407 301 l 407 301 q 422 314 413 304 l 422 314 q 336 304 383 317 q 244 247 289 292 l 244 247 l 261 239 q 306 226 276 229 l 306 226 q 355 263 329 244 q 407 301 381 282 z m 240 236 l 240 231 l 239 214 q 250 178 238 197 l 250 178 q 293 214 267 196 l 293 214 q 268 223 281 217 q 240 236 256 229 l 240 236 z m 218 -150 l 218 -150 l 211 -137 q 218 -150 215 -143 z m 431 496 l 431 496 l 436 489 q 431 496 433 492 z "}," ":{"ha":625,"x_min":0,"x_max":0,"o":""},"E":{"ha":936,"x_min":25,"x_max":875,"o":"m 303 915 l 303 915 q 575 1028 464 1001 q 753 1042 686 1054 q 847 995 819 1029 q 867 924 875 961 q 824 868 860 888 l 824 868 q 760 850 782 844 l 760 850 q 731 867 740 856 l 731 867 q 765 858 743 856 l 765 858 q 828 884 800 861 q 849 935 857 907 l 849 935 q 774 973 824 974 q 667 949 725 972 q 553 892 608 925 q 458 831 497 858 q 410 797 418 804 l 410 797 q 401 724 413 767 q 371 624 389 681 l 371 624 q 575 700 472 686 q 751 694 678 714 q 841 633 825 674 q 785 549 857 593 l 785 549 q 728 533 749 528 l 728 533 q 700 547 708 538 l 700 547 q 735 538 714 535 l 735 538 q 789 564 765 542 q 804 614 813 586 l 804 614 q 735 646 781 649 q 638 619 690 643 q 539 565 586 596 l 539 565 q 594 533 563 535 l 594 533 l 626 532 q 522 508 571 518 q 432 492 474 499 l 432 492 l 413 475 q 411 489 411 478 l 411 489 q 366 481 388 483 q 325 478 344 479 l 325 478 q 279 348 292 400 q 284 248 267 296 q 353 135 301 200 l 353 135 l 354 136 q 364 206 378 172 l 364 206 q 343 236 354 228 l 343 236 l 347 235 q 373 206 363 228 q 367 133 383 183 l 367 133 l 363 125 q 479 51 426 63 l 479 51 l 531 39 q 528 108 524 68 q 542 178 533 147 l 542 178 l 550 208 l 568 243 q 615 315 586 276 q 677 368 643 353 q 743 347 711 383 l 743 347 q 770 260 779 308 q 733 168 761 211 q 678 97 704 125 l 678 97 l 651 68 q 557 26 638 47 l 557 26 l 561 24 l 583 3 q 649 -19 606 -19 q 761 47 693 -19 l 761 47 l 742 24 q 687 -24 721 -1 q 612 -42 653 -46 q 531 15 571 -39 l 531 15 l 532 19 q 367 12 458 1 q 211 110 276 22 l 211 110 q 158 288 156 188 q 175 482 161 388 l 175 482 q 169 485 172 483 q 161 488 165 486 l 161 488 l 163 488 q 54 540 75 507 l 54 540 l 33 572 l 29 593 q 35 640 25 614 q 86 678 44 665 l 86 678 q 154 683 133 693 q 181 657 175 672 l 181 657 l 182 650 q 154 674 175 664 l 154 674 q 88 668 124 688 l 88 668 q 50 632 53 647 l 50 632 l 47 615 q 102 565 64 576 q 189 558 140 554 l 189 558 q 206 633 197 594 q 228 711 215 671 l 228 711 l 229 678 q 263 617 231 643 l 263 617 q 322 721 296 667 q 352 822 349 775 q 319 897 356 869 l 319 897 l 304 900 q 261 875 288 903 l 261 875 q 242 818 235 849 l 242 818 q 257 782 246 792 l 257 782 l 250 788 q 232 819 236 797 q 251 879 228 842 l 251 879 q 303 915 274 913 z m 749 288 l 749 288 l 719 276 q 652 236 690 264 q 584 161 614 208 q 554 42 554 114 l 554 42 l 594 56 q 682 120 635 68 q 749 288 729 172 z m 731 867 l 731 867 q 721 883 725 872 l 721 883 l 729 869 q 731 867 731 868 z m 343 236 l 343 236 l 331 240 q 343 236 336 240 z m 700 547 l 700 547 q 690 561 694 553 l 690 561 l 699 550 q 700 547 700 549 z m 186 640 l 182 650 q 186 640 185 646 l 186 640 z m 257 782 l 257 782 l 263 778 q 257 782 260 779 z "},"F":{"ha":932,"x_min":-131,"x_max":910,"o":"m 824 708 l 824 708 q 876 749 871 728 l 876 749 l 882 769 q 815 840 867 821 q 694 857 764 858 q 551 842 624 856 l 551 842 q 514 808 542 808 q 454 819 486 807 l 454 819 q 447 817 450 818 q 439 815 443 817 l 439 815 q 451 768 446 793 q 461 718 457 743 l 461 718 l 486 689 l 481 692 q 465 696 474 694 l 465 696 q 472 638 469 668 q 475 578 474 608 l 475 578 q 565 583 514 583 l 565 583 l 585 583 q 755 553 679 581 q 872 481 831 525 l 872 481 q 756 538 826 517 q 600 558 685 558 l 600 558 q 533 554 565 558 l 533 554 q 476 533 511 544 l 476 533 q 433 250 475 379 l 433 250 l 433 239 l 432 240 q 433 213 432 221 l 433 213 q 447 208 442 210 l 447 208 q 433 211 442 208 l 433 211 q 444 100 438 131 q 460 67 451 69 l 460 67 q 468 64 467 63 l 468 64 l 393 0 l 338 64 q 167 -31 261 -31 l 167 -31 q -16 75 65 -32 q -131 349 -97 182 l -131 349 q -20 133 -92 215 q 138 51 51 51 l 138 51 q 285 124 217 53 l 285 124 l 267 144 l 278 140 q 299 139 288 136 l 299 139 q 309 153 304 146 q 319 167 314 160 l 319 167 q 322 194 322 181 l 322 194 l 322 251 q 247 315 275 279 q 218 390 218 350 l 218 390 q 306 518 218 464 l 306 518 q 289 521 294 521 l 289 521 q 219 558 271 525 q 125 655 168 590 q 88 817 82 719 l 88 817 q 118 898 94 865 q 172 953 142 931 l 172 953 l 174 953 q 281 1000 221 986 l 281 1000 l 278 1001 q 304 1061 283 1040 l 304 1061 q 364 1087 329 1089 q 425 1074 399 1085 l 425 1074 l 451 1063 q 363 1073 393 1082 q 318 1047 332 1064 l 318 1047 q 349 1010 332 1033 l 349 1010 q 383 1008 374 1011 l 383 1008 l 407 1001 q 460 978 431 993 l 460 978 q 712 957 621 981 q 844 901 803 933 q 896 844 885 869 l 896 844 l 906 819 l 908 793 q 894 736 910 767 q 825 694 879 706 l 825 694 q 740 699 765 683 q 711 736 715 715 l 711 736 l 708 742 q 742 711 717 726 l 742 711 q 824 708 776 689 z m 246 622 l 271 600 q 321 571 296 582 l 321 571 q 321 589 321 582 l 321 589 l 319 594 l 321 593 q 308 736 318 704 q 292 771 299 768 l 292 771 l 289 769 l 289 771 q 287 770 288 771 q 285 769 286 769 l 285 769 l 289 772 q 284 883 304 846 q 236 935 264 919 l 236 935 q 209 884 222 914 q 189 813 196 854 l 189 813 q 199 692 178 739 q 246 622 219 644 l 246 622 z m 268 372 l 268 372 q 322 271 268 317 l 322 271 q 322 371 322 317 q 321 474 321 425 l 321 474 q 268 372 268 428 z m 315 994 l 304 992 q 318 969 311 979 l 318 969 q 338 972 328 971 q 358 974 349 972 l 358 974 q 344 997 350 990 l 344 997 q 315 994 326 997 l 315 994 z m 432 978 l 432 978 q 357 997 393 997 l 357 997 q 365 986 361 992 q 372 974 368 981 l 372 974 q 403 976 388 975 q 432 978 418 976 z m 306 1019 l 303 1007 l 300 1004 q 320 1008 311 1007 q 339 1010 329 1008 l 339 1010 q 328 1028 333 1019 l 328 1028 l 317 1044 q 306 1019 307 1031 l 306 1019 z m 389 801 l 422 763 q 413 808 417 793 l 413 808 q 389 801 401 807 l 389 801 z m 432 569 l 432 569 l 435 569 l 435 608 q 434 635 435 622 q 433 663 433 649 l 433 663 q 431 639 431 649 l 431 639 l 431 610 q 432 569 431 592 z m 286 983 l 286 983 l 281 979 q 263 964 274 975 l 263 964 q 277 966 269 965 q 292 968 285 967 l 292 968 q 286 983 289 975 z m 706 756 l 708 742 q 706 756 706 749 l 706 756 z m 468 64 l 468 64 l 468 64 q 468 64 468 64 z "},"G":{"ha":1086,"x_min":90,"x_max":1051,"o":"m 997 386 l 1044 426 q 1049 428 1049 429 l 1049 428 q 1014 385 1051 426 l 1014 385 q 869 279 965 332 l 869 279 l 869 21 l 732 -101 l 733 -51 q 733 71 733 -3 l 733 71 l 733 217 q 570 217 664 201 q 387 309 476 232 q 239 553 297 386 l 239 553 q 231 738 211 646 l 231 738 l 231 743 q 153 607 185 681 l 153 607 q 108 416 113 507 q 133 260 104 325 l 133 260 q 92 437 90 326 q 143 668 93 547 l 143 668 q 184 753 161 714 q 232 825 207 793 l 232 825 q 241 933 235 875 q 256 1057 247 992 l 256 1057 l 258 1035 q 278 984 261 1011 q 333 944 294 957 l 333 944 q 388 993 358 971 q 451 1031 417 1015 l 451 1031 q 658 1072 551 1081 q 856 1006 765 1064 q 997 847 947 947 l 997 847 q 783 977 913 946 q 528 956 654 1008 l 528 956 q 544 948 538 953 q 557 936 550 943 l 557 936 q 590 942 579 942 l 590 942 l 636 939 q 740 919 681 935 q 844 869 799 904 q 892 772 890 835 l 892 772 q 860 708 892 724 q 782 697 828 693 q 693 713 736 700 q 629 733 650 725 l 629 733 q 621 647 629 693 q 599 557 613 601 l 599 557 q 597 749 621 665 l 597 749 q 526 800 571 765 q 460 869 481 835 l 460 869 l 438 839 q 397 744 415 807 q 386 586 378 682 l 386 586 q 410 482 392 526 q 456 406 429 438 l 456 406 q 465 421 458 413 q 474 440 471 429 l 474 440 q 471 521 490 488 l 471 521 q 442 551 457 544 l 442 551 l 450 550 q 483 522 468 546 q 488 440 499 499 l 488 440 q 464 392 476 408 l 464 392 q 733 283 572 283 l 733 283 q 726 418 729 378 l 726 418 q 718 440 725 432 l 718 440 q 667 454 704 457 l 667 454 l 822 632 l 914 554 q 903 550 913 556 l 903 550 q 882 494 892 544 q 869 314 872 444 l 869 314 q 997 386 950 344 l 997 386 z m 813 814 l 844 825 q 690 910 760 894 q 574 919 619 926 l 574 919 q 619 804 611 872 l 619 804 q 730 795 679 789 q 813 814 781 801 l 813 814 z m 504 871 l 504 871 q 499 871 500 871 l 499 871 q 557 829 528 843 l 557 829 q 533 853 546 843 q 504 871 519 863 z m 394 867 l 394 867 q 393 857 394 860 l 393 857 q 411 869 403 864 q 426 879 419 874 l 426 879 q 416 877 422 878 q 406 874 410 876 l 406 874 q 401 871 404 872 q 394 867 399 869 z m 442 551 l 442 551 l 431 554 q 442 551 436 554 z m 914 554 l 914 554 q 914 554 914 554 l 914 554 z "},"H":{"ha":1222,"x_min":44,"x_max":1238,"o":"m 1149 317 l 1157 317 q 1197 295 1175 313 q 1228 239 1218 278 q 1221 129 1238 200 l 1221 129 q 1174 39 1206 67 q 1108 6 1142 11 q 1050 6 1074 1 l 1050 6 l 1025 10 l 992 25 q 913 96 957 39 q 837 278 868 153 q 811 622 806 403 l 811 622 q 756 566 799 604 q 649 490 714 528 q 501 433 583 453 l 501 433 l 501 365 q 501 307 504 336 l 501 307 l 501 272 q 517 213 501 224 q 549 210 532 203 l 549 210 l 564 215 l 449 82 q 372 -22 418 17 q 274 -60 326 -61 l 274 -60 q 140 36 196 -56 q 76 260 85 128 l 76 260 q 143 94 93 161 q 258 24 193 26 l 258 24 q 378 83 322 22 l 378 83 l 332 122 q 344 126 335 121 q 362 173 353 131 q 374 325 371 215 l 374 325 l 372 325 l 372 354 q 374 431 372 383 l 374 431 q 258 478 325 443 q 135 578 192 513 q 56 749 78 644 l 56 749 q 111 949 44 871 q 250 1065 178 1026 l 250 1065 l 249 1067 q 271 1175 240 1142 q 345 1215 301 1208 q 424 1218 389 1222 l 424 1218 l 458 1213 q 341 1198 379 1217 q 290 1153 303 1179 q 278 1106 276 1126 l 278 1106 l 278 1085 l 276 1079 q 386 1115 360 1122 l 386 1115 l 429 1113 q 527 1094 471 1108 q 626 1047 583 1079 q 671 956 669 1014 l 671 956 q 622 888 672 896 q 515 892 571 881 l 515 892 q 501 732 506 850 l 501 732 l 503 733 l 503 661 q 501 497 503 588 l 501 497 q 655 524 588 494 q 764 588 722 554 q 813 631 806 622 l 813 631 q 876 1171 817 846 l 876 1171 l 881 1135 q 906 1054 883 1099 q 985 983 928 1010 q 1147 976 1042 957 l 1147 976 l 1125 917 q 1070 758 1101 856 q 1014 547 1039 660 q 983 329 989 435 q 1003 147 976 224 q 1103 44 1029 69 l 1103 44 l 1135 53 q 1200 132 1167 60 l 1200 132 q 1201 263 1232 206 l 1201 263 q 1149 317 1176 308 l 1149 317 z m 194 779 l 194 779 q 242 633 204 686 q 320 555 281 579 q 374 525 360 531 l 374 525 q 374 674 374 600 q 375 785 375 749 l 375 785 q 359 844 375 833 q 328 849 343 854 l 328 849 l 311 843 l 392 935 q 324 982 367 950 q 264 1047 282 1014 l 264 1047 l 243 1018 q 203 930 222 989 q 194 779 185 871 z m 628 1008 l 628 1008 q 488 1085 551 1068 q 380 1096 425 1103 q 311 1076 335 1089 l 311 1076 l 286 1064 q 358 1007 321 1026 q 432 981 396 988 l 432 981 l 456 1010 l 494 976 q 594 977 557 960 q 628 1008 631 994 z m 1149 317 l 1138 319 q 1149 317 1143 319 l 1149 317 z "},"I":{"ha":814,"x_min":53,"x_max":818,"o":"m 574 215 l 574 215 q 730 156 664 201 q 818 51 796 111 l 818 51 q 736 133 793 97 q 606 179 679 169 l 606 179 q 464 172 529 194 l 464 172 l 393 92 l 356 121 q 311 36 317 82 l 311 36 q 340 -81 299 -25 q 454 -165 381 -136 l 454 -165 q 297 -73 356 -137 q 250 64 238 -8 l 250 64 q 331 171 263 129 l 331 171 q 342 227 336 189 q 349 340 347 265 l 349 340 l 349 756 q 335 811 349 801 q 307 815 321 821 l 307 815 l 293 810 l 315 835 q 248 842 283 839 q 175 851 213 846 l 175 851 l 203 857 q 255 886 229 861 q 276 969 281 911 l 276 969 q 255 960 265 965 q 233 949 244 956 l 233 949 q 148 863 169 910 q 126 782 126 815 l 126 782 l 125 749 q 161 632 129 679 q 233 557 193 585 q 303 517 272 529 l 303 517 l 332 504 q 335 503 335 503 l 335 503 q 297 511 333 500 l 297 511 q 186 567 250 525 q 78 685 122 608 l 78 685 q 60 761 68 701 q 74 894 53 821 q 172 1028 94 968 l 172 1028 q 317 1056 246 1074 q 435 1001 388 1038 l 435 1001 l 436 1004 q 518 1023 485 1033 q 572 986 551 1013 q 597 940 592 960 l 597 940 q 703 947 658 936 q 760 1001 749 957 l 760 1001 l 756 1019 q 714 1051 750 1036 l 714 1051 q 646 1050 675 1067 l 646 1050 q 617 1024 622 1038 l 617 1024 l 618 1031 q 644 1060 622 1047 q 717 1063 665 1074 l 717 1063 q 772 1029 760 1054 q 783 982 785 1004 l 783 982 l 782 960 l 769 935 q 706 881 757 910 q 540 839 656 851 l 540 839 q 540 758 547 799 q 494 697 533 717 l 494 697 q 467 690 482 690 l 467 690 l 464 294 q 478 240 464 250 q 508 236 493 231 l 508 236 l 522 242 l 501 221 q 574 215 540 221 z m 476 1014 l 456 1004 l 451 1003 q 503 954 488 975 l 503 954 q 544 949 522 951 q 588 944 567 946 l 588 944 q 528 1013 558 1003 q 476 1014 497 1022 l 476 1014 z m 501 768 l 515 754 q 522 801 521 782 q 524 840 524 821 l 524 840 l 475 839 q 471 806 471 818 l 471 806 q 501 768 488 782 l 501 768 z m 428 1001 l 428 1001 l 399 1007 q 319 1001 369 1013 l 319 1001 q 363 987 339 994 q 414 972 388 979 l 414 972 q 428 1001 421 992 z m 483 958 l 483 958 q 457 985 469 976 l 457 985 l 444 992 q 440 979 442 985 q 436 967 439 974 l 436 967 q 459 963 447 965 q 483 958 471 961 z m 617 1024 l 617 1024 l 614 1014 q 617 1024 614 1018 z "},"J":{"ha":864,"x_min":76,"x_max":844,"o":"m 528 679 l 528 679 l 526 282 q 542 233 528 242 q 569 229 556 224 l 569 229 l 583 235 l 469 106 q 333 3 417 11 l 333 3 q 175 89 246 -3 q 76 324 104 181 l 76 324 q 170 151 108 217 q 304 90 232 85 l 304 90 q 396 135 353 94 l 396 135 l 375 151 q 401 256 388 176 q 418 439 414 336 q 408 639 422 542 q 353 796 394 736 l 353 796 q 414 743 386 775 l 414 743 l 414 747 q 399 801 414 792 q 371 806 385 810 l 371 806 l 356 800 l 378 825 q 311 831 347 828 q 236 840 275 835 l 236 840 l 264 846 q 318 875 292 850 q 340 960 344 900 l 340 960 q 319 951 329 957 q 297 940 308 946 l 297 940 q 212 854 233 901 q 190 774 190 807 l 190 774 l 189 740 q 224 622 193 669 q 295 547 256 575 q 364 508 335 519 l 364 508 l 393 496 q 396 494 396 494 l 396 494 q 360 503 394 492 l 360 503 q 249 558 313 517 q 140 675 185 600 l 140 675 q 124 751 132 692 q 136 885 115 811 q 233 1018 157 960 l 233 1018 q 379 1044 308 1063 q 499 990 450 1026 l 499 990 l 499 992 q 578 1010 547 1022 q 627 969 610 999 q 651 921 644 940 l 651 921 q 761 933 714 919 q 821 990 808 947 l 821 990 l 817 1008 q 774 1043 813 1026 l 774 1043 q 708 1040 738 1058 l 708 1040 q 679 1013 685 1026 l 679 1013 l 681 1019 q 706 1050 685 1036 q 775 1053 726 1064 l 775 1053 q 832 1020 819 1044 q 843 974 844 996 l 843 974 l 840 951 l 829 925 q 766 868 817 899 q 599 825 715 838 l 599 825 q 600 746 607 786 q 556 686 593 706 l 556 686 q 528 679 542 679 z m 538 989 l 517 979 l 513 979 q 565 931 549 949 l 565 931 q 649 922 604 925 l 649 922 q 589 988 619 979 q 538 989 558 997 l 538 989 z m 563 744 l 576 732 q 585 781 583 758 q 585 822 586 804 l 585 822 l 561 822 q 535 821 549 822 l 535 821 q 531 781 532 801 l 531 781 q 563 744 547 756 l 563 744 z m 489 976 l 489 976 l 461 982 q 383 976 432 988 l 383 976 q 426 963 403 971 q 476 950 449 956 l 476 950 l 482 964 q 489 976 485 971 z m 544 935 l 544 935 q 519 960 531 951 l 519 960 l 507 968 q 500 943 503 957 l 500 943 q 522 940 510 942 q 544 935 533 938 z m 679 1013 l 679 1013 l 676 1003 q 679 1013 676 1007 z "},"K":{"ha":1088,"x_min":-53,"x_max":1058,"o":"m 364 372 l 364 372 q 371 189 364 235 l 371 189 q 386 161 374 167 l 386 161 q 421 168 399 154 l 421 168 l 275 0 l 247 24 q 171 -6 208 -4 l 171 -6 q 30 75 93 -10 q -53 288 -33 160 l -53 288 q 28 131 -26 190 q 147 74 83 71 l 147 74 q 208 93 178 75 l 208 93 q 224 174 217 104 q 228 313 231 243 l 228 313 q 107 395 181 336 q -11 554 33 454 l -11 554 q -21 615 -17 569 q -14 722 -25 661 q 34 845 -3 783 q 146 953 71 907 l 146 953 q 320 965 239 997 q 456 885 401 933 l 456 885 l 456 888 q 555 897 519 918 q 608 840 590 875 l 608 840 q 703 972 672 906 q 699 1094 735 1039 l 699 1094 l 676 1106 q 600 1088 653 1115 l 600 1088 q 540 1014 547 1061 l 540 1014 q 544 956 533 975 l 544 956 l 536 967 q 527 1019 522 985 q 589 1099 532 1054 l 589 1099 q 678 1131 640 1139 q 739 1100 717 1122 l 739 1100 l 760 1078 l 774 1051 q 785 967 788 1025 q 738 816 783 910 q 572 586 692 722 l 572 586 q 622 455 590 532 q 694 298 653 378 q 783 153 735 218 q 885 56 832 88 q 996 46 939 24 l 996 46 l 1013 67 q 1014 151 1029 88 l 1014 151 q 949 235 997 214 l 949 235 q 892 244 913 249 l 892 244 l 901 249 q 960 245 925 258 q 1028 160 994 232 l 1028 160 q 1040 57 1058 96 q 993 1 1021 18 l 993 1 l 964 -17 l 940 -24 q 872 -24 917 -31 q 759 24 826 -17 q 604 157 692 64 q 410 418 517 250 l 410 418 q 384 396 404 407 q 364 372 364 385 z m 60 665 l 54 625 q 82 481 51 542 q 155 382 113 421 q 228 324 197 343 l 228 324 q 229 433 229 365 q 230 570 229 500 q 231 690 231 640 l 231 690 l 214 707 q 222 701 218 704 q 231 694 226 697 l 231 694 l 231 740 q 215 801 231 790 q 183 806 199 811 l 183 806 l 167 799 l 211 850 q 208 849 210 850 l 208 849 q 96 758 128 811 q 60 665 64 706 l 60 665 z m 388 700 l 388 717 l 394 746 q 413 811 400 775 q 443 868 425 847 l 443 868 l 428 875 q 383 883 413 881 l 383 883 q 368 826 375 869 q 358 688 361 782 l 358 688 l 358 640 q 373 649 365 644 q 388 660 381 654 l 388 660 q 388 700 386 683 l 388 700 z m 488 835 l 464 856 q 438 773 442 813 q 442 699 435 733 l 442 699 q 484 730 463 714 q 525 764 506 746 l 525 764 q 488 835 510 813 l 488 835 z m 497 875 l 478 868 l 474 868 q 517 818 501 840 q 535 789 533 796 l 535 789 l 536 786 q 539 775 538 782 l 539 775 q 570 803 554 789 q 600 831 586 817 l 600 831 q 545 876 574 871 q 497 875 517 882 l 497 875 z m 892 244 l 892 244 l 878 239 q 892 244 883 243 z m 544 956 l 544 956 l 550 947 q 544 956 546 951 z "},"L":{"ha":890,"x_min":35,"x_max":867,"o":"m 778 282 l 778 282 q 851 240 836 271 q 863 183 867 210 l 863 183 l 857 157 l 847 132 q 797 75 838 107 q 665 19 756 43 q 413 -1 574 -4 l 413 -1 q 360 -24 383 -17 l 360 -24 l 336 -32 q 308 -33 331 -33 q 254 -28 286 -33 l 254 -28 l 256 -31 l 263 -54 q 301 -93 269 -78 q 404 -86 332 -108 l 404 -86 l 382 -96 q 326 -109 358 -106 q 267 -95 294 -112 q 232 -25 240 -78 l 232 -25 l 233 -24 q 179 -6 207 -17 q 125 24 151 6 l 125 24 q 71 79 94 46 q 40 160 47 113 l 40 160 q 78 322 35 258 q 172 419 121 386 q 242 456 224 453 l 242 456 q 258 458 250 457 q 274 460 265 458 l 274 460 l 275 781 q 261 833 275 824 q 233 836 247 842 l 233 836 l 219 831 l 344 976 l 419 913 q 411 910 418 913 l 411 910 q 395 869 403 906 q 385 736 388 832 l 385 736 l 385 736 q 386 692 386 736 l 386 692 q 385 581 385 646 l 385 581 l 385 454 q 514 408 465 438 l 514 408 q 551 382 553 385 l 551 382 q 547 382 550 381 l 547 382 l 500 404 q 383 428 453 426 l 383 428 l 383 338 q 397 287 383 296 q 425 283 411 278 l 425 283 l 439 288 l 342 175 q 373 166 357 171 q 407 157 389 161 l 407 157 q 467 169 439 169 q 504 135 494 168 l 504 135 q 647 120 576 122 q 768 138 717 118 q 833 207 819 157 l 833 207 l 829 229 q 776 268 824 250 l 776 268 q 694 267 729 288 l 694 267 q 663 236 669 251 l 663 236 l 664 242 q 693 278 668 261 q 778 282 718 294 z m 142 164 l 142 164 q 162 92 149 122 q 189 42 175 63 l 189 42 q 237 94 217 57 q 242 204 257 132 l 242 204 l 238 207 q 240 206 239 207 q 242 206 240 206 l 242 206 l 242 207 l 244 206 q 261 241 251 208 q 274 383 271 274 l 274 383 l 274 406 q 249 393 261 400 q 224 376 236 386 l 224 376 l 199 354 q 151 285 172 332 q 142 164 131 239 z m 257 -14 l 257 -14 l 294 -19 q 385 0 331 -26 l 385 0 q 330 3 358 1 q 271 7 301 4 l 271 7 q 257 -14 265 0 z m 215 13 l 215 13 q 233 -1 226 3 l 233 -1 l 239 -7 q 244 10 242 4 l 244 10 q 215 13 235 10 z m 663 236 l 663 236 l 658 221 q 663 236 658 228 z m 421 911 l 419 913 q 421 911 421 911 l 421 911 z "},"M":{"ha":1129,"x_min":3,"x_max":1075,"o":"m 374 856 l 374 856 l 365 771 q 363 688 368 753 q 354 536 358 622 q 353 367 350 450 q 376 231 357 285 q 436 179 394 178 l 436 179 l 281 3 l 265 17 q 207 -3 235 -1 l 207 -3 q 77 72 135 -6 q 3 265 19 149 l 3 265 q 76 122 26 176 q 185 71 125 68 l 185 71 q 200 72 194 71 l 200 72 l 189 81 q 201 95 192 79 q 220 167 210 111 q 235 340 231 222 l 235 340 l 233 339 l 233 347 q 131 423 188 372 q 40 551 74 474 l 40 551 q 31 638 32 571 q 60 783 29 704 q 183 918 92 863 l 183 918 q 196 924 192 921 l 196 924 l 321 1072 l 414 988 q 399 984 410 989 q 378 914 388 979 l 378 914 q 426 888 406 904 q 468 856 447 872 l 468 856 l 468 858 q 474 860 471 860 q 481 863 478 861 l 481 863 q 607 1010 536 953 q 757 1071 678 1067 l 757 1071 q 927 1002 854 1076 q 1038 800 1000 928 q 1063 514 1075 672 l 1063 514 q 976 190 1049 336 q 800 -26 903 43 l 800 -26 q 939 168 882 46 q 1006 436 996 290 l 1006 436 q 981 697 1017 581 q 876 879 946 813 q 713 940 806 946 l 713 940 q 551 869 629 935 l 551 869 q 572 856 564 864 q 590 839 581 849 l 590 839 l 668 931 l 753 858 q 722 761 732 833 q 710 593 713 689 q 710 397 708 497 q 711 218 711 297 l 711 218 q 726 160 711 171 q 757 156 742 150 l 757 156 l 771 161 l 632 1 l 547 72 q 559 75 550 71 q 576 121 568 79 q 588 268 585 163 l 588 268 l 589 711 q 569 772 589 765 q 536 772 550 778 l 536 772 q 538 767 538 771 l 538 767 l 547 735 q 560 656 556 701 q 551 569 564 611 q 494 511 538 528 l 494 511 q 438 523 457 497 q 412 590 418 549 q 404 664 406 632 l 404 664 q 387 619 394 642 q 374 574 379 597 l 374 574 q 385 638 376 606 q 404 700 394 669 l 404 700 l 404 701 l 411 729 q 428 789 417 756 q 457 839 440 822 l 457 839 l 435 847 q 374 856 413 856 z m 104 653 l 100 617 q 142 455 96 518 q 233 358 189 392 l 233 358 l 233 446 q 234 577 233 506 q 235 715 235 649 l 235 715 l 235 819 q 137 737 165 785 q 104 653 108 689 l 104 653 z m 504 583 l 524 558 q 538 725 560 665 q 493 808 517 785 l 493 808 q 472 782 483 797 l 472 782 l 450 751 q 465 652 446 696 q 504 583 483 608 l 504 583 z m 535 775 l 578 828 q 531 849 558 849 l 531 849 q 516 835 524 842 q 503 819 508 828 l 503 819 q 535 775 525 796 l 535 775 z "},"N":{"ha":1042,"x_min":-107,"x_max":1036,"o":"m 1036 311 l 1036 311 q 892 121 975 197 q 729 25 810 44 l 729 25 q 686 4 707 8 l 686 4 l 665 -1 l 640 -1 q 572 19 614 -1 q 476 103 529 40 q 366 288 422 165 q 257 617 310 411 l 257 617 q 240 656 250 636 q 221 693 231 675 l 221 693 q 215 641 218 674 q 210 558 211 608 l 210 558 l 208 161 q 221 110 207 119 q 249 107 235 101 l 249 107 l 263 113 l 139 -32 l 63 32 q 73 35 65 31 q 89 75 81 39 q 99 207 97 111 l 99 207 l 99 256 q 99 373 99 304 q 100 507 100 442 l 100 507 l 100 603 q 86 654 100 646 q 60 658 72 663 l 60 658 l 46 653 l 164 789 q 67 890 119 854 q -46 907 14 926 l -46 907 l -62 888 q -67 808 -79 867 l -67 808 q -7 728 -54 749 l -7 728 q 49 717 28 713 l 49 717 l 38 713 q -19 717 14 703 q -82 800 -51 732 l -82 800 q -87 897 -107 861 q -39 949 -68 932 l -39 949 l -11 964 l 22 971 q 115 958 54 978 q 263 862 176 939 q 458 617 350 785 l 458 617 q 467 622 463 619 q 476 626 472 624 l 476 626 l 476 617 q 478 588 476 607 l 478 588 q 494 561 485 575 q 513 532 503 547 l 513 532 q 542 613 522 569 l 542 613 q 699 858 603 760 q 892 978 796 957 l 892 978 q 734 863 811 947 q 606 657 657 778 l 606 657 q 553 461 564 556 l 553 461 q 587 397 569 431 q 622 325 604 363 l 622 325 l 603 349 q 547 385 583 371 l 547 385 q 581 220 549 290 q 678 124 614 150 l 678 124 q 747 111 710 111 l 747 111 l 747 121 q 713 201 749 175 l 713 201 q 665 222 685 221 l 665 222 l 676 224 q 724 208 699 226 q 761 125 750 190 l 761 125 q 762 119 761 122 q 763 113 763 115 l 763 113 q 904 172 832 119 q 1036 311 976 225 z m 49 717 l 49 717 l 61 721 q 49 717 56 718 z m 665 222 l 665 222 l 654 221 q 665 222 660 222 z "},"O":{"ha":1117,"x_min":39,"x_max":1132,"o":"m 1065 689 l 1065 689 l 1088 650 q 1120 553 1108 610 q 1107 445 1132 497 q 988 368 1082 393 l 988 368 l 983 371 q 943 221 974 299 q 852 80 913 143 q 690 -10 792 17 l 690 -10 q 461 2 563 -31 q 288 92 360 35 q 175 203 217 150 l 175 203 q 107 304 136 249 q 64 424 78 360 l 64 424 q 79 667 39 550 q 211 869 119 785 q 429 978 303 953 l 429 978 q 666 967 554 1004 q 860 845 778 929 q 978 647 942 761 q 988 407 1014 533 l 988 407 l 993 411 l 1018 421 q 1069 456 1043 429 q 1101 540 1096 483 q 1065 689 1106 596 z m 663 171 l 663 171 q 860 265 797 207 q 940 381 922 322 l 940 381 q 852 417 899 389 q 774 469 806 444 l 774 469 l 740 494 l 717 522 q 661 592 692 550 q 610 681 631 635 q 597 767 590 728 q 654 825 603 807 l 654 825 q 454 835 557 856 l 454 835 q 267 745 338 811 q 173 593 197 679 q 168 421 149 507 q 250 267 188 335 q 416 170 313 200 q 663 171 519 140 z m 738 789 l 738 789 q 741 726 738 771 q 763 624 744 681 q 824 512 781 567 q 943 421 867 457 l 943 421 q 935 518 944 468 l 935 518 q 864 678 917 608 q 738 789 811 747 z "},"P":{"ha":950,"x_min":61,"x_max":910,"o":"m 300 308 l 300 308 q 219 378 261 336 q 150 483 178 421 l 150 483 q 140 559 143 500 q 164 690 138 618 q 267 814 190 761 l 267 814 l 396 963 l 493 881 q 482 878 492 882 l 482 878 q 463 824 472 872 l 463 824 q 508 799 486 814 q 546 768 529 783 l 546 768 l 547 769 q 626 779 596 793 q 671 736 656 765 q 692 682 686 707 l 692 682 l 697 657 q 644 749 675 732 q 589 760 613 767 l 589 760 l 565 751 l 563 751 q 599 710 586 729 q 614 683 613 690 l 614 683 l 622 654 q 633 582 629 624 q 624 503 636 540 q 572 450 613 465 l 572 450 q 519 458 536 436 q 496 514 501 479 q 492 578 490 549 l 492 578 l 492 606 l 496 635 q 510 699 500 664 q 536 751 519 735 l 536 751 l 514 760 q 453 767 492 768 l 453 767 l 449 288 q 505 299 475 290 q 561 317 535 307 l 561 317 q 705 424 650 353 q 774 586 760 496 q 753 764 788 676 q 646 906 718 851 q 484 974 574 960 q 306 954 394 989 l 306 954 q 199 886 244 929 q 126 786 154 843 l 126 786 q 213 927 154 864 q 354 1025 271 990 l 354 1025 q 558 1051 456 1067 q 744 972 661 1035 q 868 807 828 908 l 868 807 q 893 602 910 706 q 813 415 876 499 q 649 292 750 332 l 649 292 q 549 267 603 274 q 447 267 494 261 l 447 267 l 450 93 q 474 61 458 67 l 474 61 q 490 63 481 60 l 490 63 l 518 72 l 356 -104 l 338 -86 q 276 -110 314 -106 l 276 -110 q 140 -37 200 -112 q 61 163 81 39 l 61 163 q 138 11 86 69 q 253 -44 190 -47 l 253 -44 q 260 -43 257 -44 q 267 -42 264 -42 l 267 -42 l 257 -31 q 257 -31 257 -31 l 257 -31 q 278 44 260 -31 l 278 44 q 300 308 294 121 z m 206 575 l 203 546 q 232 414 201 468 q 300 326 263 360 l 300 326 q 301 468 301 392 l 301 468 l 301 721 q 229 645 250 686 q 206 575 208 604 l 206 575 z m 574 717 l 549 742 q 530 617 515 674 q 571 528 544 561 l 571 528 l 596 493 q 612 638 626 583 q 574 717 597 692 l 574 717 z m 493 881 l 493 881 q 493 881 493 881 l 493 881 z "},"Q":{"ha":1238,"x_min":56,"x_max":1286,"o":"m 1258 -253 l 1258 -253 q 1269 -347 1286 -311 q 1226 -399 1251 -382 l 1226 -399 l 1200 -415 l 1179 -422 q 1115 -422 1157 -429 q 1010 -378 1072 -415 q 868 -253 949 -340 l 868 -253 q 865 -259 867 -256 q 863 -265 864 -262 l 863 -265 q 867 -251 864 -260 l 867 -251 q 783 -147 828 -207 q 688 -10 738 -87 l 688 -10 q 531 -6 603 -21 q 399 36 458 8 l 399 36 q 404 7 401 17 l 404 7 q 394 39 400 17 l 394 39 q 276 118 326 72 q 193 204 225 164 l 193 204 q 82 424 108 300 l 82 424 q 97 667 56 550 q 228 866 138 783 q 446 975 319 949 q 689 960 572 1001 q 888 828 806 919 q 997 611 971 738 l 997 611 q 1006 510 1008 560 q 1000 407 1004 460 l 1000 407 q 1028 418 1003 408 q 1081 456 1054 428 q 1113 539 1107 483 q 1078 688 1118 594 l 1078 688 l 1100 649 q 1132 552 1121 608 q 1117 444 1143 496 q 996 369 1090 393 l 996 369 q 956 219 986 297 q 863 81 925 140 l 863 81 q 926 -72 888 13 q 1013 -230 965 -157 q 1116 -342 1061 -303 q 1229 -358 1171 -381 l 1229 -358 l 1244 -337 q 1244 -261 1260 -318 l 1244 -261 q 1186 -185 1231 -204 l 1186 -185 q 1136 -175 1154 -171 l 1136 -175 l 1143 -171 q 1196 -175 1164 -162 q 1258 -253 1228 -187 z m 471 832 l 471 832 q 276 731 351 807 q 182 558 201 656 q 208 365 163 461 q 372 204 253 269 l 372 204 q 400 325 375 274 q 471 399 425 376 l 471 399 q 633 378 543 431 q 793 215 724 326 l 793 215 q 905 295 864 261 q 953 381 946 329 l 953 381 q 866 417 913 390 q 788 469 819 444 l 788 469 l 754 494 l 731 522 q 676 591 706 549 q 626 680 646 633 q 612 765 606 726 q 669 822 618 804 l 669 822 q 471 832 572 853 z m 401 189 l 401 189 q 485 162 438 172 q 590 156 532 151 l 590 156 q 581 174 585 165 q 571 190 576 182 l 571 190 l 581 181 q 606 158 589 169 l 606 158 q 678 172 635 160 l 678 172 q 753 197 714 182 l 753 197 q 619 306 690 274 q 488 311 547 339 l 488 311 q 401 189 421 281 z m 753 788 l 753 788 q 755 724 751 769 q 776 622 758 679 q 838 511 794 565 q 957 421 881 457 l 957 421 q 949 517 960 469 l 949 517 q 878 676 931 607 q 753 788 826 746 z m 1136 -175 l 1136 -175 l 1121 -181 q 1136 -175 1126 -176 z "},"R":{"ha":836,"x_min":-51,"x_max":904,"o":"m 874 136 l 874 136 q 888 32 904 71 q 846 -24 872 -7 l 846 -24 l 819 -40 l 796 -47 q 724 -43 771 -54 q 606 19 676 -32 q 442 185 535 71 q 233 499 349 299 l 233 499 l 233 404 q 233 263 233 335 q 232 161 232 192 l 232 161 q 243 119 232 126 q 265 115 254 111 l 265 115 l 276 119 l 174 0 l 111 53 q 119 56 113 53 q 131 89 125 58 q 140 199 138 119 l 140 199 l 140 197 l 142 256 q 142 388 142 313 l 142 388 l 142 510 q 50 727 51 638 q 101 901 49 817 l 101 901 l 97 900 l 76 904 q 28 897 56 907 q -23 851 0 888 q -50 738 -46 815 l -50 738 l -50 772 q -40 849 -51 807 q 7 919 -29 892 q 117 929 43 946 l 117 929 l 118 926 q 253 1053 168 996 q 456 1085 338 1111 l 456 1085 q 607 997 550 1056 q 693 871 664 938 q 731 750 722 804 q 740 676 740 696 l 740 676 q 698 524 738 592 q 609 410 658 457 q 529 339 560 364 l 529 339 q 622 167 571 249 q 730 42 672 86 q 847 21 788 -1 l 847 21 l 864 43 q 861 128 879 64 q 797 214 843 192 l 797 214 q 740 225 763 229 l 740 225 l 751 229 q 807 224 774 239 q 874 136 840 210 z m 524 349 l 524 349 q 594 433 554 378 q 653 566 633 489 q 644 739 674 643 l 644 739 l 629 783 q 563 878 613 828 q 411 950 514 929 l 411 950 q 261 958 322 969 q 168 928 200 946 l 168 928 l 136 910 q 188 854 164 892 q 226 786 211 817 l 226 786 l 242 754 l 257 693 q 265 575 272 632 l 265 575 q 332 588 296 571 q 407 654 368 604 l 407 654 l 439 560 q 524 349 469 464 z m 107 599 l 183 686 q 174 785 186 732 q 117 892 163 839 l 117 892 l 96 858 q 69 758 75 824 q 107 599 63 693 l 107 599 z m 136 544 l 136 544 l 138 547 q 142 551 139 549 l 142 551 q 130 586 139 579 q 110 590 121 593 l 110 590 q 122 569 115 581 q 136 544 129 558 z m 740 225 l 740 225 l 728 219 q 740 225 733 224 z m 110 54 l 111 53 q 110 54 110 53 l 110 54 l 110 54 z "},"S":{"ha":839,"x_min":8,"x_max":768,"o":"m 657 492 l 657 492 l 654 490 q 736 350 704 435 q 722 168 768 265 l 722 168 q 611 52 675 90 q 484 2 547 14 q 374 -6 421 -10 q 311 6 326 -1 l 311 6 q 182 91 235 39 q 98 194 129 143 q 56 275 67 244 l 56 275 q 50 297 47 296 l 50 297 q 53 294 50 297 l 53 294 l 72 260 q 130 181 90 225 q 233 103 169 136 q 383 74 296 69 l 383 74 l 440 82 q 557 149 497 89 l 557 149 q 531 270 569 201 q 390 422 492 339 l 390 422 q 297 448 340 428 q 267 515 253 468 l 267 515 q 160 639 185 585 q 150 733 136 693 q 196 801 164 774 l 196 801 q 144 788 164 793 l 144 788 l 125 781 q 127 891 142 851 q 84 948 113 931 q 32 969 56 965 l 32 969 l 8 974 q 373 990 231 999 q 595 955 515 982 q 711 895 675 928 q 756 839 747 863 l 756 839 l 764 815 l 767 788 q 751 728 768 760 q 678 688 735 697 l 678 688 q 590 695 615 678 q 561 733 565 713 l 561 733 l 558 742 q 593 708 567 725 l 593 708 q 676 701 629 683 l 676 701 q 733 743 726 721 l 733 743 l 739 764 q 664 842 724 822 q 522 859 604 863 q 358 840 440 856 q 214 807 275 824 l 214 807 q 200 717 188 774 q 318 578 213 661 l 318 578 q 417 598 361 601 q 514 583 472 594 l 514 583 l 556 572 q 636 510 576 569 l 636 510 l 636 514 l 646 543 q 634 610 654 572 q 524 676 614 649 l 524 676 l 554 671 q 619 644 585 664 q 670 589 654 625 q 657 492 686 553 z m 624 499 l 624 499 l 596 526 q 505 572 567 554 q 340 561 443 590 l 340 561 q 385 529 361 546 q 438 496 410 513 l 438 496 q 453 485 446 490 q 468 475 461 481 l 468 475 q 542 473 503 469 q 624 499 581 476 z m 533 429 l 533 429 q 602 365 576 396 q 642 307 628 335 l 642 307 q 650 432 663 385 l 650 432 l 636 479 q 590 449 618 463 q 533 429 561 436 z m 556 754 l 558 742 q 556 754 556 747 l 556 754 z "},"T":{"ha":860,"x_min":54,"x_max":843,"o":"m 768 1047 l 768 1047 q 829 1012 815 1039 q 842 961 843 985 l 842 961 l 839 936 l 826 908 q 759 847 814 879 q 579 800 704 814 l 579 800 q 579 715 586 758 q 529 653 572 672 l 529 653 q 500 644 518 644 l 500 644 l 497 218 q 513 161 497 171 q 544 157 528 151 l 544 157 l 560 163 l 419 -1 l 333 71 q 344 74 336 69 q 362 120 353 79 q 374 271 371 161 l 374 271 l 374 325 q 374 458 374 379 q 375 610 375 536 l 375 610 l 375 717 q 360 776 375 765 q 329 781 344 786 l 329 781 l 314 775 l 338 801 q 265 808 303 804 q 185 818 226 813 l 185 818 l 214 824 q 272 856 243 829 q 294 947 300 883 l 294 947 q 273 936 285 942 q 249 924 261 931 l 249 924 q 157 832 181 882 q 133 746 133 782 l 133 746 l 132 710 q 172 583 138 633 q 248 501 206 532 q 322 458 290 471 l 322 458 l 353 444 q 356 442 356 443 l 356 442 q 318 451 356 439 l 318 451 q 199 511 268 465 q 81 639 129 557 l 81 639 q 63 722 71 657 q 77 866 54 786 q 183 1010 100 946 l 183 1010 q 338 1038 261 1058 q 468 981 414 1018 l 468 981 l 468 983 q 555 1002 521 1015 q 608 958 589 989 q 633 904 626 926 l 633 904 q 751 917 700 900 q 817 981 803 933 l 817 981 l 813 1000 q 767 1036 808 1018 l 767 1036 q 693 1033 725 1053 l 693 1033 q 664 1006 669 1019 l 664 1006 l 665 1013 q 692 1044 669 1031 q 768 1047 714 1058 z m 511 978 l 489 968 l 486 967 q 539 915 522 938 l 539 915 q 631 904 590 906 l 631 904 q 567 977 600 967 q 511 978 533 988 l 511 978 z m 538 713 l 551 699 q 560 752 558 726 q 561 799 563 778 l 561 799 q 536 797 549 797 q 508 796 524 796 l 508 796 q 504 753 506 775 l 504 753 q 538 713 522 726 l 538 713 z m 458 964 l 458 964 l 426 971 q 343 964 394 976 l 343 964 q 388 951 363 958 q 443 936 414 943 l 443 936 q 450 951 447 943 q 458 964 453 958 z m 518 918 l 518 918 q 490 947 503 938 l 490 947 l 476 956 q 469 929 471 936 l 469 929 q 518 918 497 921 z m 664 1006 l 664 1006 l 661 994 q 664 1006 661 1000 z "},"U":{"ha":1049,"x_min":81,"x_max":985,"o":"m 319 203 l 319 203 q 381 124 332 150 q 477 89 429 97 q 533 79 525 81 l 533 79 q 688 104 629 72 q 775 167 746 136 l 775 167 q 776 197 775 182 q 776 229 776 211 l 776 229 l 775 228 l 776 297 q 777 460 776 365 q 778 633 778 556 l 778 633 l 776 635 q 776 639 775 638 l 776 639 q 778 639 776 639 l 778 639 l 778 731 q 760 796 778 785 q 726 800 743 807 l 726 800 l 708 793 l 867 975 l 960 896 q 950 892 958 896 l 950 892 q 929 840 939 886 q 917 674 919 794 l 917 674 l 917 464 q 916 294 917 376 q 915 172 915 213 l 915 172 q 933 108 915 119 q 968 103 950 96 l 968 103 l 985 108 l 826 -74 l 733 4 q 669 -28 704 -14 q 594 -49 635 -42 l 594 -49 q 613 -117 610 -82 l 613 -117 q 586 -50 606 -81 l 586 -50 q 538 -54 564 -54 l 538 -54 q 378 13 438 -47 q 289 142 319 74 l 289 142 q 144 90 186 153 l 144 90 q 136 -16 115 46 q 213 -135 157 -78 l 213 -135 q 83 54 101 -47 l 83 54 q 83 50 83 51 l 83 50 l 82 47 l 82 61 q 81 81 81 72 q 83 99 82 89 l 83 99 q 120 507 89 350 q 195 750 151 664 q 281 872 239 836 q 353 914 324 907 l 353 914 l 381 919 l 414 918 q 481 891 447 915 q 518 799 515 867 l 518 799 q 498 696 522 724 q 449 667 474 668 l 449 667 l 436 665 q 483 701 458 671 l 483 701 q 501 800 517 740 l 501 800 q 463 872 488 861 l 463 872 l 438 882 q 333 803 367 872 q 293 635 300 733 q 292 438 286 536 l 292 438 q 353 526 315 486 q 450 556 392 565 l 450 556 q 505 508 500 547 q 492 422 510 469 q 454 339 474 374 l 454 339 l 433 304 l 397 265 q 319 203 360 226 z m 401 454 l 393 503 q 333 438 357 469 q 294 376 310 406 l 294 376 q 304 289 299 331 q 314 215 310 247 l 314 215 q 394 339 379 272 q 401 454 408 406 l 401 454 z m 422 664 l 436 665 q 422 664 429 664 l 422 664 z m 961 894 l 960 896 q 961 894 961 894 l 961 894 q 961 894 961 894 l 961 894 z "},"V":{"ha":1301,"x_min":86,"x_max":1267,"o":"m 1085 1029 l 1107 1021 l 1135 1011 q 1196 975 1163 1000 q 1248 905 1229 950 q 1249 789 1267 860 l 1249 789 q 1197 677 1228 710 q 1134 639 1165 644 q 1082 640 1103 633 l 1082 640 l 1075 642 q 1124 649 1096 639 l 1124 649 q 1192 701 1161 663 q 1226 797 1224 739 l 1226 797 q 1217 886 1231 857 q 1189 926 1203 915 l 1189 926 l 1174 936 q 1017 890 1085 951 q 898 721 949 828 q 813 490 847 614 q 758 253 779 365 q 729 69 738 142 l 729 69 l 719 -3 q 560 86 621 75 q 468 79 500 97 l 468 79 l 422 10 l 317 78 q 328 83 319 76 q 342 136 338 89 q 336 303 347 183 l 336 303 l 335 301 l 333 317 q 329 354 332 331 l 329 354 l 313 340 q 294 329 304 333 l 294 329 q 312 344 304 336 q 328 363 319 353 l 328 363 q 321 426 325 390 q 313 504 317 463 l 313 504 q 277 451 294 482 q 247 381 260 419 l 247 381 q 232 213 214 282 q 279 107 250 143 l 279 107 l 308 69 q 454 -26 378 -3 q 598 -46 531 -50 q 708 -29 665 -42 l 708 -29 l 750 -17 q 754 -17 754 -15 l 754 -17 q 732 -29 756 -18 l 732 -29 q 634 -61 699 -46 q 485 -76 569 -76 q 314 -43 401 -76 l 314 -43 q 254 -2 296 -36 q 170 91 213 32 q 107 231 128 150 q 108 413 86 313 l 108 413 q 188 532 135 489 q 301 594 240 575 l 301 594 q 288 714 294 658 q 278 800 281 769 l 278 800 q 274 822 276 813 q 268 838 271 831 l 268 838 q 175 795 219 840 q 106 676 131 750 l 106 676 q 214 872 136 813 l 214 872 l 336 1054 l 439 985 q 429 981 438 986 l 429 981 q 415 927 419 974 q 421 760 410 881 l 421 760 l 433 668 q 434 665 433 667 q 435 660 435 663 l 435 660 q 502 713 463 706 q 580 706 542 719 q 643 678 618 693 l 643 678 l 668 661 q 554 697 597 697 q 488 677 511 696 q 458 640 465 658 l 458 640 l 450 621 l 446 617 q 523 613 490 618 q 563 603 556 607 l 563 603 l 583 593 q 631 563 603 582 l 631 563 q 788 837 715 739 q 919 978 861 935 q 1020 1028 978 1021 q 1085 1029 1063 1036 l 1085 1029 z m 624 546 l 624 546 q 501 599 554 599 l 501 599 l 449 599 q 503 502 468 539 q 576 444 539 465 l 576 444 q 600 497 589 471 q 624 546 611 522 z m 515 408 l 501 421 l 485 446 q 453 503 468 469 l 453 503 q 468 364 461 431 q 481 263 475 297 l 481 263 q 490 222 482 240 l 490 222 q 520 302 506 264 q 549 376 535 340 l 549 376 q 515 408 528 394 l 515 408 z m 1061 646 l 1075 642 q 1061 646 1068 643 l 1061 646 z m 439 985 l 439 985 q 439 985 439 985 l 439 985 z "},"W":{"ha":1114,"x_min":31,"x_max":1026,"o":"m 782 1213 l 782 1213 q 936 1092 876 1192 q 1011 845 996 993 q 988 529 1026 697 l 988 529 q 874 241 950 367 q 708 51 799 115 l 708 51 l 658 -6 l 588 54 q 597 56 590 53 q 612 94 604 60 q 622 218 619 129 l 622 218 l 621 217 l 621 263 q 622 373 621 308 q 622 499 622 438 l 622 499 l 622 589 q 615 629 622 615 l 615 629 q 592 575 603 603 q 572 518 582 547 l 572 518 q 501 226 543 331 q 418 74 460 121 q 346 14 376 28 l 346 14 q 463 19 413 4 l 463 19 l 511 33 q 514 33 514 33 l 514 33 q 481 17 515 31 l 481 17 q 360 -10 436 -1 q 199 14 283 -18 l 199 14 q 138 62 182 21 q 62 174 93 103 q 51 339 31 244 l 51 339 q 109 425 71 394 q 190 469 147 456 l 190 469 q 180 555 185 515 q 172 617 175 594 l 172 617 q 167 644 169 638 l 167 644 q 100 613 132 646 q 50 528 68 581 l 50 528 q 126 668 71 622 l 126 668 l 214 799 l 289 749 q 278 742 288 750 l 278 742 q 267 685 268 733 q 285 522 265 638 l 285 522 l 285 517 q 358 556 314 564 q 429 532 403 547 l 429 532 q 558 721 499 660 q 662 800 618 782 q 731 815 706 818 l 731 815 l 754 811 l 778 801 q 819 764 801 790 q 822 688 838 738 l 822 688 q 773 616 801 625 q 728 613 744 607 l 728 613 q 726 582 726 599 q 725 546 725 565 l 725 546 l 726 547 l 726 501 q 725 391 725 456 q 724 265 725 326 q 724 175 724 204 l 724 175 q 738 128 724 135 q 764 124 753 121 l 764 124 q 857 274 817 189 q 919 461 897 360 l 919 461 q 939 749 954 614 q 867 976 924 885 q 719 1088 810 1068 l 719 1088 q 506 1026 614 1111 q 328 786 399 940 l 328 786 q 449 1029 375 926 q 610 1182 522 1132 q 782 1213 697 1232 z m 174 121 l 194 94 q 217 74 203 85 l 217 74 q 215 90 215 79 l 215 90 l 201 100 q 210 103 204 99 q 220 142 217 108 q 215 261 224 175 l 215 261 l 214 260 l 214 271 q 210 299 213 281 l 210 299 q 185 279 201 290 l 185 279 q 210 304 197 290 l 210 304 q 203 349 207 324 q 197 404 200 375 l 197 404 q 173 366 185 388 q 150 317 161 344 l 150 317 q 140 197 126 246 q 174 121 153 147 l 174 121 z m 272 36 l 272 36 q 364 120 336 43 q 400 286 392 197 l 400 286 q 381 301 390 293 q 364 315 371 310 l 364 315 q 319 281 325 300 q 318 232 314 261 l 318 232 q 335 188 322 194 q 361 188 349 182 l 361 188 l 372 193 l 276 51 l 231 82 q 240 56 232 67 l 240 56 q 256 45 249 50 q 272 36 264 40 z m 800 756 l 785 769 q 708 753 743 778 l 708 753 l 758 711 q 746 704 757 713 l 746 704 q 728 614 735 696 l 728 614 q 778 632 750 613 q 810 693 806 651 l 810 693 q 800 756 815 742 l 800 756 z m 306 507 l 296 488 l 293 485 q 348 482 325 486 q 376 475 371 478 l 376 475 l 382 474 q 394 465 386 471 l 394 465 q 403 481 400 476 l 403 481 q 401 503 401 496 l 401 503 l 400 510 q 408 507 404 508 q 414 504 411 506 l 414 504 q 426 528 422 521 l 426 528 q 343 539 371 551 q 306 507 315 526 l 306 507 z m 322 474 l 294 472 q 357 382 314 417 l 357 382 q 389 454 372 419 l 389 454 q 322 474 350 474 l 322 474 z m 339 340 l 333 346 l 322 364 q 297 404 310 381 l 297 404 q 306 336 301 369 q 313 275 310 303 l 313 275 q 339 340 325 311 l 339 340 z m 289 749 l 289 749 q 289 749 289 749 l 289 749 z m 758 711 l 758 711 q 758 711 758 711 l 758 711 z "},"X":{"ha":1106,"x_min":81,"x_max":1051,"o":"m 1026 174 l 1026 174 q 1030 75 1051 111 q 979 24 1008 39 l 979 24 l 950 8 l 921 3 q 835 13 890 -4 q 701 100 779 31 l 701 100 q 622 3 675 51 q 478 -56 568 -46 l 478 -56 q 346 -6 394 -57 q 274 100 297 46 l 274 100 l 272 99 q 200 122 221 99 q 178 177 179 146 q 182 232 176 208 l 182 232 l 188 256 q 197 156 178 183 q 240 125 217 128 l 240 125 l 264 121 l 267 119 q 250 199 244 182 l 250 199 l 251 204 q 253 217 251 208 l 253 217 q 190 303 224 251 l 190 303 l 213 286 q 269 282 235 269 l 269 282 q 310 354 283 321 q 381 385 336 388 l 381 385 q 422 356 415 382 q 419 297 428 331 q 399 235 411 263 q 383 201 386 207 l 383 201 q 467 90 419 140 q 564 64 515 40 l 564 64 l 572 75 q 568 114 579 86 l 568 114 q 535 150 558 143 l 535 150 q 511 153 521 154 l 511 153 l 522 158 q 575 119 546 168 l 575 119 q 583 72 590 94 l 583 72 q 632 114 615 92 q 654 146 649 136 l 654 146 q 539 292 600 204 l 539 292 l 536 289 q 438 461 492 368 q 328 681 385 554 l 328 681 l 357 649 q 436 610 385 617 l 436 610 q 358 767 403 693 q 260 881 314 840 q 144 903 207 921 l 144 903 l 128 883 q 119 803 110 864 l 119 803 q 178 719 131 742 l 178 719 q 232 706 211 703 l 232 706 l 222 703 q 165 710 199 694 q 104 794 132 725 l 104 794 q 102 895 81 858 q 153 949 124 932 l 153 949 l 182 964 l 213 969 q 297 957 242 975 q 431 868 353 939 l 431 868 q 510 965 457 917 q 653 1024 564 1014 l 653 1024 q 786 974 738 1025 q 857 868 835 922 l 857 868 l 858 869 q 931 846 911 869 q 953 791 951 822 q 950 736 956 760 l 950 736 l 944 713 q 935 813 956 786 q 892 844 915 840 l 892 844 l 868 847 l 865 849 q 880 798 876 819 q 882 769 883 776 l 882 769 l 882 765 q 879 751 881 760 l 879 751 q 910 711 894 733 q 942 665 925 689 l 942 665 l 919 682 q 863 686 896 699 l 863 686 q 822 613 849 647 q 751 583 796 579 l 751 583 q 710 612 717 586 q 712 672 703 638 q 733 733 721 706 q 749 767 746 761 l 749 767 q 665 878 714 828 q 568 904 617 928 l 568 904 l 561 893 q 564 854 554 882 l 564 854 q 599 818 574 825 l 599 818 q 619 815 611 815 l 619 815 l 610 811 q 557 849 585 801 l 557 849 q 547 896 542 872 l 547 896 q 500 856 517 878 q 478 822 483 833 l 478 822 q 592 676 535 761 l 592 676 q 596 679 594 679 l 596 679 q 694 507 640 600 q 803 288 747 414 l 803 288 l 775 319 q 696 358 747 351 l 696 358 q 773 201 729 275 q 871 88 817 128 q 986 65 925 47 l 986 65 l 1006 85 q 1013 165 1024 104 q 956 250 1001 226 l 956 250 q 901 263 922 265 l 901 263 l 910 265 q 967 259 933 274 q 1026 174 1000 244 z m 843 858 l 843 858 l 807 889 q 692 925 771 919 l 692 925 q 744 891 715 913 q 807 835 772 869 l 807 835 q 825 849 817 842 q 843 858 833 856 z m 289 110 l 289 110 l 325 81 q 440 43 361 50 l 440 43 q 388 77 417 56 q 325 133 358 99 l 325 133 q 306 119 315 126 q 289 110 297 113 z m 350 329 l 342 358 q 293 296 311 328 l 293 296 q 322 326 308 307 l 322 326 l 331 307 q 353 258 339 288 l 353 258 q 350 329 357 300 l 350 329 z m 783 639 l 790 610 q 817 642 806 625 q 839 672 829 658 l 839 672 q 810 642 824 661 l 810 642 l 803 661 q 779 710 794 681 l 779 710 q 783 639 775 668 l 783 639 z m 868 765 l 868 765 q 863 822 871 801 l 863 822 l 853 843 q 838 831 844 838 l 838 831 l 824 817 q 846 793 835 806 q 868 765 857 781 z m 264 203 l 264 203 q 271 147 263 168 l 271 147 l 279 125 q 294 139 288 132 l 294 139 l 307 151 q 264 203 288 174 z m 619 815 l 619 815 l 633 821 q 619 815 628 815 z m 901 263 l 901 263 l 885 257 q 901 263 892 261 z m 511 153 l 511 153 l 499 147 q 511 153 503 151 z m 232 706 l 232 706 l 246 711 q 232 706 240 707 z "},"Y":{"ha":831,"x_min":29,"x_max":799,"o":"m 571 -19 l 571 -19 q 401 -56 485 -60 q 296 -43 317 -53 l 296 -43 q 153 72 207 1 q 75 190 99 143 l 75 190 q 41 269 53 233 q 36 329 29 306 l 36 329 q 51 358 40 347 l 51 358 q 140 364 76 381 l 140 364 q 344 242 231 339 l 344 242 q 440 154 397 200 q 514 64 482 108 l 514 64 q 539 83 528 71 q 564 108 550 94 l 564 108 l 549 119 q 561 120 551 118 q 581 165 571 122 q 593 326 590 208 l 593 326 l 593 369 q 549 354 572 360 q 510 344 526 349 l 510 344 q 469 267 496 296 l 469 267 q 449 243 453 249 l 449 243 l 467 271 q 489 342 485 299 l 489 342 l 474 342 l 432 343 q 344 356 389 344 l 344 356 q 353 311 351 335 l 353 311 q 347 293 354 299 l 347 293 q 331 288 342 288 l 331 288 q 290 312 303 288 q 272 361 276 336 l 272 361 l 268 386 q 269 396 268 389 q 275 408 269 403 l 275 408 q 274 426 274 414 l 274 426 q 246 415 264 426 l 246 415 q 233 360 228 404 l 233 360 l 232 376 q 237 414 229 394 q 275 435 244 433 l 275 435 l 276 436 q 276 438 276 436 l 276 438 q 274 436 275 436 l 274 436 q 228 453 251 431 q 193 510 204 475 l 193 510 q 260 458 217 451 l 260 458 q 276 468 271 461 q 288 483 282 475 l 288 483 q 283 544 286 508 q 274 618 279 579 l 274 618 q 260 634 268 628 q 246 646 253 640 l 246 646 q 274 628 257 640 l 274 628 q 238 771 261 700 q 178 887 214 842 q 89 924 142 932 l 89 924 l 72 914 q 56 858 56 903 l 56 858 q 88 790 56 811 l 88 790 q 124 774 108 775 l 124 774 l 117 772 q 76 785 97 769 q 46 853 56 800 l 46 853 q 55 924 36 901 q 97 956 74 947 l 97 956 l 119 963 l 150 963 q 228 926 179 961 q 338 794 278 892 q 456 504 397 697 l 456 504 q 494 500 475 504 l 494 500 l 525 492 q 550 522 538 506 q 571 560 563 538 l 571 560 q 528 579 556 571 l 528 579 l 542 576 q 575 567 554 574 l 575 567 q 585 590 579 576 q 597 614 592 603 l 597 614 l 597 832 q 580 897 597 886 q 546 903 563 908 l 546 903 l 528 896 l 685 1072 l 776 993 q 765 990 775 994 l 765 990 q 745 940 756 985 q 731 775 735 894 l 731 775 l 731 282 q 748 217 731 228 q 782 213 765 206 l 782 213 l 799 219 l 704 88 q 645 24 682 49 q 574 -18 608 0 l 574 -18 q 633 -99 600 -43 q 672 -229 667 -156 l 672 -229 q 656 -291 674 -244 q 594 -384 638 -337 q 471 -446 550 -431 l 471 -446 q 356 -411 400 -451 q 288 -328 311 -371 l 288 -328 l 286 -329 q 213 -301 229 -333 q 200 -233 196 -268 l 200 -233 l 203 -200 q 219 -284 200 -262 q 260 -306 239 -306 l 260 -306 l 279 -307 l 281 -308 q 260 -243 260 -264 l 260 -243 l 267 -203 q 294 -122 272 -162 q 361 -82 315 -82 l 361 -82 q 399 -105 393 -82 q 399 -158 406 -128 q 382 -210 392 -187 l 382 -210 l 372 -233 l 350 -268 q 299 -317 326 -304 l 299 -317 l 338 -343 q 457 -365 376 -371 l 457 -365 q 551 -334 518 -360 q 597 -283 583 -308 l 597 -283 l 610 -260 q 619 -114 646 -181 q 571 -19 593 -47 z m 368 18 l 368 18 l 413 21 q 510 58 456 24 l 510 58 q 447 126 481 92 q 376 194 414 161 l 376 194 q 189 303 271 281 l 189 303 q 108 297 132 318 l 108 297 q 93 269 97 288 l 93 269 q 119 145 78 204 q 229 51 160 86 q 368 18 299 15 z m 278 -276 l 288 -301 q 342 -216 336 -261 q 340 -137 349 -171 l 340 -137 l 331 -106 q 274 -208 281 -164 q 278 -276 268 -251 l 278 -276 z m 514 388 l 514 388 q 551 389 531 386 q 593 400 572 392 l 593 400 l 593 431 q 557 458 581 450 l 557 458 q 533 428 546 442 q 510 404 521 415 l 510 404 q 512 397 511 401 q 514 388 513 392 z m 308 301 l 308 301 l 315 321 q 314 368 321 339 l 314 368 q 278 400 285 376 l 278 400 q 279 360 275 386 q 308 301 283 333 z m 514 475 l 514 475 q 460 489 492 489 l 460 489 q 462 481 461 486 q 464 472 463 475 l 464 472 q 479 456 476 463 l 479 456 q 498 466 489 461 q 514 475 507 471 z m 593 453 l 593 453 l 593 522 q 580 497 588 508 q 565 472 572 485 l 565 472 q 593 453 578 465 z m 383 458 l 383 458 l 367 458 q 388 449 378 454 q 407 442 397 443 l 407 442 l 440 442 q 383 458 419 458 z m 124 774 l 124 774 l 135 775 q 124 774 129 774 z m 449 243 l 449 243 l 447 242 q 446 240 446 240 l 446 240 q 449 243 446 240 z m 233 360 l 233 360 l 233 357 q 233 360 233 358 z m 776 993 l 776 993 q 776 993 776 993 l 776 993 z "},"Z":{"ha":1144,"x_min":90,"x_max":1068,"o":"m 1060 842 l 1051 819 l 1039 803 q 988 767 1025 785 q 876 750 950 750 l 876 750 l 882 686 q 867 692 882 689 l 867 692 q 786 638 851 694 l 786 638 q 808 508 808 578 l 808 508 q 724 343 799 400 q 578 263 649 286 l 578 263 q 546 182 572 208 l 546 182 q 874 108 757 114 q 1015 176 990 103 l 1015 176 l 1013 197 q 964 238 1008 217 l 964 238 q 886 239 921 258 l 886 239 q 851 207 858 224 l 851 207 l 854 218 q 885 251 860 236 q 967 250 910 265 l 967 250 q 1030 208 1017 238 q 1040 153 1043 178 l 1040 153 l 1036 126 l 1025 103 q 972 51 1014 79 q 840 5 931 22 q 593 0 750 -12 l 593 0 q 590 -15 590 -11 l 590 -15 l 585 -10 q 567 1 578 -6 l 567 1 q 457 15 515 7 q 332 36 399 24 l 332 36 l 371 42 q 435 83 408 46 l 435 83 q 312 141 376 117 q 194 165 247 165 q 114 121 142 164 l 114 121 l 114 103 q 144 57 113 85 l 144 57 q 213 40 178 31 l 213 40 q 247 60 238 47 l 247 60 l 243 53 q 210 30 235 38 q 140 46 186 22 l 140 46 q 95 96 100 68 q 99 146 90 124 l 99 146 l 107 167 l 132 196 q 236 233 156 225 l 236 233 l 229 304 q 239 298 231 301 q 286 321 247 294 l 286 321 q 238 375 256 344 q 226 444 219 406 l 226 444 q 270 494 235 490 q 349 481 306 499 q 425 446 393 464 l 425 446 q 540 560 469 490 q 653 672 610 629 l 653 672 q 523 794 607 760 q 344 819 439 829 q 169 764 250 810 l 169 764 q 181 756 175 760 q 194 749 188 753 l 194 749 q 274 747 239 728 l 274 747 q 307 776 299 761 l 307 776 l 304 769 q 274 736 299 750 q 192 736 249 722 l 192 736 q 128 779 142 750 q 119 833 115 808 l 119 833 l 122 858 l 133 882 q 186 935 144 906 q 318 981 228 964 q 565 986 408 999 l 565 986 q 568 1001 568 997 l 568 1001 l 575 997 q 592 985 581 992 l 592 985 q 701 971 643 979 q 826 949 760 963 l 826 949 l 789 944 q 724 901 751 940 l 724 901 q 847 845 783 869 q 965 822 911 821 q 1044 865 1018 822 l 1044 865 l 1046 885 q 1014 929 1046 903 l 1014 929 q 947 946 981 956 l 947 946 q 911 926 921 939 l 911 926 l 915 933 q 948 956 924 949 q 1018 940 972 964 l 1018 940 q 1063 891 1058 919 q 1060 842 1068 863 l 1060 842 z m 569 288 l 569 288 l 594 310 q 645 379 618 331 q 681 508 672 428 l 681 508 q 683 524 682 517 q 683 540 683 532 l 683 540 l 604 461 q 514 372 557 414 l 514 372 q 548 331 532 354 q 569 288 564 307 z m 165 767 l 165 767 q 261 822 189 786 q 429 868 333 858 l 429 868 q 250 883 335 889 q 143 810 165 876 l 143 810 l 144 797 q 165 767 146 783 z m 546 233 l 550 257 q 484 249 513 250 q 449 250 456 249 l 449 250 l 439 253 q 410 261 428 256 l 410 261 q 418 225 399 235 l 418 225 l 436 215 l 432 214 l 518 190 q 546 233 542 210 l 546 233 z m 511 268 l 547 276 q 486 344 522 318 l 486 344 q 456 315 469 329 q 433 292 443 301 l 433 292 q 418 275 426 286 l 418 275 q 511 268 475 258 l 511 268 z m 289 397 l 254 392 q 307 338 279 360 l 307 338 q 372 393 329 356 l 372 393 q 289 397 324 401 l 289 397 z m 307 776 l 307 776 l 310 788 q 307 776 310 782 z m 911 926 l 911 926 l 907 918 q 911 926 908 922 z m 247 60 l 247 60 l 251 68 q 247 60 250 64 z m 851 207 l 851 207 l 849 199 q 851 207 849 203 z m 882 686 l 882 686 q 882 686 882 686 l 882 686 z "},"a":{"ha":583,"x_min":32,"x_max":582,"o":"m 531 26 l 558 35 q 561 35 561 35 l 561 35 q 531 19 563 32 l 531 19 q 415 -4 488 3 q 264 18 343 -11 l 264 18 q 206 63 249 25 q 135 167 164 101 q 125 322 106 233 l 125 322 q 213 428 150 400 q 333 461 276 457 l 333 461 l 332 463 q 394 528 350 521 l 394 528 l 428 567 q 225 510 301 518 q 110 513 149 501 q 58 542 71 525 l 58 542 l 44 557 l 39 572 q 37 609 32 588 q 74 646 42 631 l 74 646 q 140 653 124 674 l 140 653 l 149 642 q 126 651 140 647 l 126 651 q 75 638 100 657 l 75 638 q 53 606 51 619 l 53 606 l 53 590 q 136 558 78 549 q 258 601 194 568 q 368 664 322 633 l 368 664 l 414 694 q 443 618 418 636 q 492 601 468 600 l 492 601 l 515 603 q 486 590 501 597 q 458 579 471 583 l 458 579 l 496 543 q 489 542 494 544 l 489 542 q 479 506 483 539 l 479 506 q 497 496 490 500 l 497 496 l 503 492 l 490 499 q 479 503 483 501 l 479 503 q 474 429 474 479 l 474 429 q 546 363 510 406 q 560 272 582 321 l 560 272 q 524 246 549 244 q 474 263 499 247 l 474 263 l 474 153 q 485 113 474 117 l 485 113 q 492 113 488 111 l 492 113 l 510 117 l 424 19 l 372 63 q 385 72 375 61 l 385 72 q 396 183 394 85 l 396 183 l 396 322 q 392 331 393 328 l 392 331 l 389 332 l 364 372 q 335 444 338 413 l 335 444 l 292 417 q 217 303 247 389 l 217 303 q 207 190 194 236 q 240 118 219 143 l 240 118 l 260 93 q 358 28 306 44 q 456 15 410 13 q 531 26 501 18 l 531 26 z m 474 413 l 474 413 l 474 332 q 528 300 506 293 q 549 317 550 307 l 549 317 q 512 376 531 353 q 474 413 493 399 z m 396 378 l 396 378 l 397 449 q 367 450 378 451 l 367 450 l 354 449 q 373 409 361 426 q 396 378 385 392 z m 357 472 l 354 463 l 353 463 q 396 460 374 463 l 396 460 q 386 489 394 485 q 368 493 378 493 l 368 493 q 357 472 360 482 l 357 472 z m 156 632 l 149 642 q 156 632 154 638 l 156 632 z m 372 63 l 372 63 l 372 63 q 372 63 372 63 l 372 63 q 372 63 372 63 z "},"b":{"ha":751,"x_min":32,"x_max":749,"o":"m 588 508 l 585 508 q 697 413 644 475 q 738 257 749 351 l 738 257 q 679 125 721 176 q 588 46 638 74 q 498 7 539 18 q 442 -3 457 -4 l 442 -3 q 309 31 369 3 q 207 92 249 58 q 147 149 165 125 l 147 149 q 135 165 133 164 l 135 165 q 138 164 135 165 l 138 164 l 164 140 q 238 90 190 117 q 347 56 285 64 q 482 76 410 47 l 482 76 l 515 93 q 585 153 549 110 q 631 281 622 197 l 631 281 q 623 399 638 351 q 592 469 608 446 l 592 469 l 575 492 q 534 447 563 469 q 482 410 506 425 l 482 410 l 458 394 l 435 386 q 376 369 410 376 l 376 369 l 376 285 q 392 228 376 238 q 422 224 407 218 l 422 224 l 436 229 l 300 72 l 217 142 q 228 144 219 140 q 245 189 236 149 q 256 333 254 229 l 256 333 l 256 443 l 257 767 q 253 804 257 790 l 253 804 q 133 766 175 767 q 75 776 90 765 l 75 776 l 58 788 l 46 815 q 64 868 32 842 l 64 868 q 118 885 101 900 l 118 885 l 126 878 q 107 882 119 881 l 107 882 q 68 861 85 882 q 54 831 51 840 l 54 831 l 57 819 q 120 806 82 794 q 200 849 158 818 q 275 910 242 879 l 275 910 l 333 981 l 414 910 q 428 915 422 913 l 428 915 l 432 917 q 413 903 422 911 q 396 889 403 896 l 396 889 q 384 831 390 871 q 376 718 378 792 l 376 718 l 376 718 q 378 663 378 718 l 378 663 q 376 533 376 607 l 376 533 q 446 544 415 543 l 446 544 l 476 546 q 563 518 492 551 l 563 518 l 563 521 l 563 549 q 532 601 561 575 q 418 622 503 626 l 418 622 l 446 626 q 509 625 474 631 q 569 594 544 619 q 588 508 594 568 l 588 508 z m 376 514 l 376 438 q 465 447 417 433 q 557 506 513 460 l 557 506 l 508 526 q 376 514 458 546 l 376 514 z m 135 869 l 126 878 q 135 869 132 875 l 135 869 z "},"c":{"ha":807,"x_min":24,"x_max":785,"o":"m 325 386 l 318 393 q 300 372 313 385 l 300 372 q 293 257 281 314 l 293 257 q 397 93 311 154 q 586 50 482 32 l 586 50 q 674 83 635 58 q 742 142 713 108 l 742 142 q 658 53 710 90 q 540 6 606 17 l 540 6 q 323 55 422 -15 q 204 243 224 125 l 204 243 q 197 282 197 261 l 197 282 q 103 251 133 242 l 103 251 l 71 260 l 47 281 q 49 343 24 300 l 49 343 q 99 379 76 388 l 99 379 l 110 374 q 89 371 101 375 l 89 371 q 54 336 65 364 l 54 336 q 51 300 44 310 l 51 300 l 58 289 q 143 308 100 267 q 218 403 186 349 l 218 403 q 224 413 221 407 q 228 422 226 418 l 228 422 q 282 531 256 489 l 282 531 q 241 584 268 572 q 192 594 214 596 l 192 594 l 169 593 q 225 613 199 603 q 278 632 251 624 l 278 632 q 284 665 276 643 q 328 692 292 686 l 328 692 q 378 683 365 697 q 392 660 390 669 l 392 660 q 393 661 393 660 q 394 663 393 663 l 394 663 q 434 674 418 675 q 456 672 450 674 l 456 672 q 665 681 597 699 q 753 639 732 664 l 753 639 l 772 613 l 779 592 q 777 544 785 571 q 729 500 769 517 l 729 500 q 648 494 668 474 q 624 525 628 515 l 624 525 q 661 499 631 510 q 726 511 692 489 l 726 511 q 761 551 760 535 l 761 551 l 761 568 q 706 610 744 603 q 619 610 668 618 l 619 610 q 633 553 615 571 q 668 531 650 535 l 668 531 l 686 526 q 665 525 671 526 l 665 525 q 696 500 683 515 l 696 500 q 654 525 678 517 l 654 525 l 624 525 q 416 508 479 525 q 329 404 353 490 l 329 404 q 326 392 328 396 l 326 392 l 325 386 z m 299 663 l 294 653 q 296 644 294 649 q 299 638 297 640 l 299 638 q 347 651 325 644 q 390 660 369 657 l 390 660 q 368 681 386 671 q 329 682 350 692 l 329 682 q 299 663 303 672 l 299 663 z m 121 369 l 110 374 q 121 369 117 374 l 121 369 z "},"d":{"ha":679,"x_min":42,"x_max":646,"o":"m 615 144 l 640 167 q 644 168 643 168 l 644 168 q 618 138 646 167 l 618 138 q 510 55 582 99 q 342 4 439 11 l 342 4 q 282 15 328 3 q 183 60 236 28 q 92 151 131 93 q 51 300 53 210 l 51 300 q 94 455 42 394 q 201 546 146 515 l 201 546 l 200 550 q 218 634 194 608 q 276 665 242 660 q 338 668 310 671 l 338 668 l 364 664 q 253 642 282 668 q 225 590 225 617 l 225 590 l 224 564 l 224 561 q 278 583 256 575 q 307 588 301 590 l 307 588 l 338 586 q 406 576 368 585 l 406 576 l 406 713 q 404 772 406 746 q 401 819 403 799 l 401 819 q 194 782 263 775 q 103 811 125 789 l 103 811 l 81 833 l 75 850 q 73 888 68 865 q 110 925 78 910 l 110 925 q 179 932 163 953 l 179 932 l 189 917 q 164 929 181 925 l 164 929 q 111 917 138 936 l 111 917 q 88 883 86 897 l 88 883 l 88 868 q 151 835 108 835 q 246 857 194 836 q 345 905 297 878 q 424 953 393 932 l 424 953 l 454 974 l 454 961 l 524 879 q 550 881 539 878 l 550 881 l 560 882 q 533 871 550 879 l 533 871 l 582 814 l 568 819 q 538 815 553 825 q 524 758 524 804 l 524 758 l 524 640 q 524 475 524 560 q 524 333 525 390 l 524 333 q 536 191 528 231 q 554 149 544 151 l 554 149 q 564 146 563 144 l 564 146 l 482 76 l 349 231 l 364 225 q 392 229 378 219 q 406 285 406 239 l 406 285 l 406 414 q 350 431 375 421 l 350 431 l 324 439 l 301 453 q 251 486 278 465 q 213 529 225 507 l 213 529 l 192 499 q 153 412 171 467 q 142 286 135 357 l 142 286 q 189 161 150 206 q 264 100 228 117 l 264 100 l 300 82 q 434 61 372 53 q 542 95 496 69 q 615 144 589 121 l 615 144 z m 406 481 l 406 557 q 278 568 325 589 l 278 568 l 229 546 q 321 490 274 501 q 406 481 368 478 l 406 481 z m 194 910 l 189 917 q 194 910 193 914 l 194 910 z m 564 146 l 564 146 l 564 146 q 564 146 564 146 z "},"e":{"ha":793,"x_min":25,"x_max":807,"o":"m 751 618 l 751 618 q 800 574 793 600 q 801 526 807 547 l 801 526 l 794 506 l 785 489 q 741 455 774 472 q 640 432 708 438 l 640 432 l 449 232 q 426 169 415 203 l 426 169 l 383 163 l 332 157 q 441 66 372 96 q 586 47 510 36 l 586 47 q 742 142 683 65 l 742 142 q 659 51 711 89 q 542 1 607 14 l 542 1 q 324 52 424 -18 q 204 240 225 122 l 204 240 q 199 279 199 258 l 199 279 q 104 247 135 239 l 104 247 l 74 256 l 50 278 q 50 340 25 299 l 50 340 q 101 376 78 385 l 101 376 l 110 372 q 90 369 101 372 l 90 369 q 56 335 67 363 l 56 335 q 53 297 46 307 l 53 297 l 60 286 q 144 306 100 267 q 221 400 188 346 l 221 400 l 226 411 q 231 421 229 417 l 231 421 q 249 461 239 442 q 268 499 258 481 l 268 499 q 231 511 250 504 q 192 524 211 518 l 192 524 l 214 522 q 262 532 235 521 q 304 579 289 543 l 304 579 q 283 610 286 597 l 283 610 l 281 622 l 283 653 q 329 689 285 683 l 329 689 q 380 682 369 696 q 392 657 390 668 l 392 657 q 371 681 389 669 q 329 681 353 692 l 329 681 q 299 661 303 672 l 299 661 l 294 650 q 313 619 299 632 l 313 619 q 315 649 315 633 l 315 649 l 326 643 q 354 625 336 636 l 354 625 q 392 657 374 647 l 392 657 q 443 674 424 676 l 443 674 l 461 671 l 485 657 q 496 603 508 643 l 496 603 l 496 601 q 588 621 549 610 l 588 621 l 626 631 q 631 559 613 581 q 667 531 649 538 l 667 531 l 704 535 l 704 536 l 739 539 l 738 510 q 785 549 769 521 l 785 549 l 785 567 q 749 608 783 585 l 749 608 q 683 619 714 631 l 683 619 q 653 600 660 610 l 653 600 l 656 606 q 683 628 661 619 q 751 618 706 638 z m 374 254 l 374 254 l 581 458 q 586 500 594 490 l 586 500 q 579 504 583 503 l 579 504 q 524 502 560 510 q 453 494 488 494 q 408 521 419 493 l 408 521 q 368 460 394 504 q 331 401 342 417 l 331 401 q 328 389 329 394 l 328 389 l 326 383 l 319 390 q 310 379 314 385 q 303 369 306 374 l 303 369 q 294 253 282 315 l 294 253 q 297 240 294 249 l 297 240 q 374 254 339 218 z m 485 642 l 476 649 q 397 601 433 658 l 397 601 q 404 599 400 600 q 411 596 408 597 l 411 596 q 451 597 431 596 q 489 600 471 599 l 489 600 l 489 608 q 485 642 493 633 l 485 642 z m 124 367 l 110 372 q 124 367 118 372 l 124 367 z m 653 600 l 653 600 l 649 590 q 653 600 650 594 z "},"f":{"ha":922,"x_min":42,"x_max":914,"o":"m 251 761 l 443 972 l 526 876 q 572 876 543 871 q 619 933 600 882 l 619 933 l 649 900 q 720 827 676 867 q 808 768 764 788 q 885 775 853 749 l 885 775 l 889 786 q 876 818 892 797 l 876 818 q 840 842 861 842 l 840 842 q 822 839 829 842 l 822 839 l 829 844 q 882 825 847 858 l 882 825 q 897 769 914 794 l 897 769 l 879 744 l 864 733 q 808 721 847 721 q 699 753 768 721 q 524 875 629 786 l 524 875 q 510 876 519 876 l 510 876 q 465 849 483 876 q 446 775 446 822 l 446 775 l 446 560 l 456 560 q 453 569 456 567 l 453 569 l 469 561 q 531 565 497 564 q 603 564 564 567 l 603 564 l 582 558 q 550 528 561 551 l 550 528 q 659 503 604 510 q 731 535 714 497 l 731 535 l 731 547 q 708 569 729 558 q 669 574 688 581 l 669 574 q 656 564 660 569 l 656 564 l 660 572 q 708 576 667 590 l 708 576 q 743 538 747 564 l 743 538 l 739 511 l 724 489 q 645 455 707 467 q 446 472 583 443 l 446 472 l 446 113 q 447 90 446 97 l 447 90 q 469 65 461 75 l 469 65 l 476 54 q 493 4 482 49 l 493 4 l 497 4 l 494 3 q 496 -8 494 -1 q 497 -17 497 -14 l 497 -17 l 500 -15 l 518 -1 q 539 43 535 11 q 503 129 543 75 l 503 129 l 518 113 q 546 69 533 94 q 551 15 558 43 q 501 -37 544 -14 l 501 -37 l 500 -37 q 488 -156 506 -92 q 401 -256 471 -219 l 401 -256 q 251 -273 319 -290 q 141 -222 183 -256 q 90 -174 99 -187 l 90 -174 q 46 -34 50 -104 q 51 79 42 36 l 51 79 q 61 110 58 111 l 61 110 q 61 107 61 110 l 61 107 l 57 60 q 71 -53 51 11 q 161 -165 90 -117 l 161 -165 l 188 -181 q 260 -200 214 -196 q 367 -172 307 -204 l 367 -172 q 465 -81 444 -128 l 465 -81 l 485 -35 q 465 -35 476 -39 l 465 -35 l 447 -57 l 343 -179 l 226 -69 l 229 -69 q 292 -35 265 -62 q 321 29 318 -7 l 321 29 q 272 90 293 56 q 288 147 251 125 l 288 147 q 324 160 304 160 l 324 160 l 324 406 q 306 392 318 399 q 268 386 293 385 l 268 386 q 222 421 224 392 l 222 421 l 219 450 l 232 481 q 324 536 243 511 l 324 536 l 324 651 q 317 693 324 672 l 317 693 l 314 696 q 251 761 299 742 l 251 761 z m 267 396 l 267 396 q 301 395 286 389 q 324 410 317 401 l 324 410 l 324 479 q 264 464 289 478 q 235 422 239 450 l 235 422 l 238 413 q 267 396 240 403 z m 481 14 l 481 14 q 450 68 472 44 l 450 68 q 481 14 461 29 z m 485 -19 l 485 -19 l 485 -10 l 479 -17 q 482 -18 481 -17 q 485 -19 483 -19 z m 822 839 l 822 839 l 811 831 q 822 839 815 836 z m 656 564 l 656 564 l 651 554 q 656 564 651 560 z "},"g":{"ha":690,"x_min":31,"x_max":644,"o":"m 600 675 l 600 675 q 625 619 619 649 q 631 571 631 590 l 631 571 q 628 549 631 549 l 628 549 l 628 560 q 622 597 628 569 q 596 651 617 625 q 529 676 575 676 l 529 676 q 496 669 517 676 l 496 669 q 538 641 519 660 q 556 590 556 622 l 556 590 q 543 539 556 568 l 543 539 l 540 538 q 595 459 571 506 q 619 358 619 413 l 619 358 q 561 220 619 272 q 454 149 503 168 l 454 149 q 493 81 493 131 l 493 81 q 492 57 493 65 l 492 57 l 489 56 q 609 -78 574 -12 q 644 -200 644 -143 l 644 -200 q 567 -353 644 -294 q 392 -412 490 -412 l 392 -412 q 230 -362 308 -412 q 110 -199 151 -312 l 110 -199 q 216 -291 150 -253 q 349 -329 282 -329 l 349 -329 q 432 -307 388 -329 q 508 -233 476 -285 q 540 -97 540 -182 l 540 -97 q 511 8 540 -29 l 511 8 l 481 44 q 422 -4 463 18 l 422 -4 l 382 -28 l 349 -37 q 278 -47 314 -47 l 278 -47 q 235 -38 253 -47 q 217 -4 217 -29 l 217 -4 q 251 62 217 42 q 328 88 286 82 q 392 93 371 93 l 392 93 q 417 91 401 93 q 474 65 433 89 l 474 65 l 474 69 l 475 74 q 475 82 475 76 l 475 82 q 468 112 475 94 q 438 143 461 129 l 438 143 q 258 128 353 108 q 97 217 163 149 q 31 390 31 285 l 31 390 q 115 582 31 508 q 297 656 199 656 l 297 656 q 418 626 360 656 l 418 626 q 442 685 421 660 l 442 685 q 436 687 439 686 q 431 689 433 688 l 431 689 l 444 686 q 478 705 458 700 q 511 710 497 710 l 511 710 q 570 696 546 710 q 600 675 594 682 z m 238 561 l 238 561 q 151 475 178 531 q 133 363 125 419 q 185 267 142 307 q 310 228 229 228 l 310 228 q 446 264 388 228 q 528 363 504 300 q 522 503 551 425 l 522 503 q 518 502 521 503 q 513 501 515 501 l 513 501 q 511 502 511 501 q 510 503 511 503 l 510 503 q 443 478 479 486 l 443 478 l 407 468 l 399 468 q 375 467 389 467 l 375 467 q 283 478 336 467 q 229 529 229 489 l 229 529 q 232 544 229 538 q 238 561 235 551 z m 244 35 l 244 35 l 275 22 q 347 8 304 8 l 347 8 q 406 19 375 8 q 467 56 438 29 l 467 56 l 444 69 q 379 82 421 82 l 379 82 q 319 72 353 82 q 244 35 285 63 z m 276 588 l 276 588 q 267 583 272 586 l 267 583 q 311 551 267 582 q 424 519 356 519 l 424 519 q 410 535 418 525 q 401 558 401 546 l 401 558 q 414 582 401 569 l 414 582 q 335 596 376 596 l 335 596 q 276 588 306 596 z m 525 554 l 525 558 l 531 569 q 535 594 535 579 q 525 628 535 610 q 486 664 515 647 l 486 664 q 454 640 467 654 q 436 615 442 626 l 436 615 q 450 607 443 613 l 450 607 q 458 603 457 601 l 458 603 q 486 589 458 601 l 486 589 q 525 554 515 575 l 525 554 z m 426 519 l 426 519 q 467 525 446 519 l 467 525 q 435 551 436 544 l 435 551 l 425 578 q 417 574 424 578 q 410 556 410 571 q 426 519 410 540 z m 431 575 l 431 575 q 442 553 433 568 q 476 528 451 539 l 476 528 q 485 531 481 529 q 494 535 489 533 l 494 535 q 431 575 464 564 z m 532 510 l 529 518 l 528 518 q 530 515 529 517 q 532 510 531 513 l 532 510 z m 458 603 l 458 603 q 458 603 458 603 l 458 603 q 458 603 458 603 l 458 603 q 458 603 458 603 z "},"h":{"ha":707,"x_min":11,"x_max":713,"o":"m 478 638 l 478 638 q 660 526 607 597 q 710 369 713 454 q 673 206 708 285 q 590 73 638 128 q 506 6 543 18 l 506 6 l 533 31 q 593 100 561 54 q 641 210 625 146 q 635 353 657 274 l 635 353 l 622 389 q 567 467 608 425 q 440 528 525 510 l 440 528 q 316 533 367 543 q 240 508 265 524 l 240 508 l 214 493 q 257 448 238 479 q 289 392 276 417 l 289 392 l 301 365 l 310 332 q 321 253 318 297 q 310 178 324 210 q 253 153 297 147 l 253 153 l 250 153 l 211 101 l 118 -6 l 15 90 q 76 126 51 97 q 100 193 100 154 l 100 193 l 100 465 q 74 423 86 451 q 60 349 63 394 l 60 349 l 60 399 q 90 483 60 449 l 90 483 q 51 497 63 486 l 51 497 l 39 507 l 25 533 q 46 590 11 560 l 46 590 q 100 610 76 618 l 100 610 l 100 613 q 94 647 100 628 l 94 647 l 94 650 l 93 651 q 36 710 76 692 l 36 710 l 169 864 l 204 904 l 211 896 q 268 889 229 893 q 351 885 307 885 q 426 899 394 886 q 461 942 458 911 l 461 942 l 458 950 q 432 964 454 958 q 396 957 410 969 l 396 957 q 385 943 388 950 l 385 943 l 388 954 q 431 971 390 972 l 431 971 q 472 946 468 969 l 472 946 l 475 921 l 469 901 q 422 856 463 881 q 282 817 382 831 l 282 817 l 285 814 q 278 817 283 814 l 278 817 q 261 815 269 815 q 244 813 253 814 l 244 813 q 208 724 208 789 l 208 724 l 208 585 q 293 663 257 624 l 293 663 l 329 700 q 350 658 338 672 q 376 638 363 644 l 376 638 q 478 638 426 649 z m 218 197 l 218 197 q 241 254 226 213 q 254 351 256 296 q 211 463 253 407 l 211 463 l 211 224 q 218 197 213 214 z m 35 551 l 38 539 q 100 524 60 517 l 100 524 l 100 604 q 50 585 69 610 l 50 585 q 35 551 32 563 l 35 551 z m 385 943 l 385 943 l 383 935 q 385 943 383 939 z "},"i":{"ha":442,"x_min":25,"x_max":426,"o":"m 383 651 l 422 671 q 425 671 424 671 l 425 671 q 393 647 426 668 l 393 647 q 285 610 353 621 l 285 610 l 285 564 q 368 318 361 478 l 368 318 q 328 98 375 190 q 211 3 282 6 l 211 3 q 94 72 147 0 q 25 249 42 143 l 25 249 q 62 158 38 197 q 115 93 86 118 l 115 93 q 167 127 147 101 q 188 185 188 153 l 188 185 l 188 558 q 186 574 188 567 q 183 589 185 582 l 183 589 l 183 590 l 181 593 q 161 622 174 610 l 161 622 q 79 694 124 644 q 38 828 35 743 l 38 828 q 90 925 46 893 q 181 968 135 957 l 181 968 l 178 971 q 217 1032 185 1024 q 279 1031 249 1040 l 279 1031 l 308 1021 q 229 1023 253 1036 q 201 993 206 1010 l 201 993 l 196 975 l 196 972 q 258 976 242 983 l 258 976 l 294 964 q 364 926 331 951 q 388 858 397 900 l 388 858 q 344 828 379 821 q 278 856 310 835 l 278 856 l 246 875 l 219 904 q 185 957 192 932 l 185 957 l 154 929 q 114 826 124 900 l 114 826 q 126 733 106 768 q 164 681 146 697 l 164 681 l 250 781 l 279 815 l 351 735 q 333 742 344 742 l 333 742 q 299 717 313 742 q 285 656 285 692 l 285 656 l 285 632 q 383 651 343 631 l 383 651 z m 343 357 l 343 357 q 285 554 335 476 l 285 554 l 285 236 q 308 165 285 189 l 308 165 q 336 251 326 201 q 343 357 346 301 z m 340 888 l 371 890 q 288 958 328 944 q 224 968 249 972 l 224 968 l 197 963 q 267 899 226 913 q 340 888 308 885 l 340 888 z "},"j":{"ha":540,"x_min":11,"x_max":532,"o":"m 507 703 l 529 724 q 532 725 531 725 l 532 725 q 518 706 532 724 l 518 706 q 455 649 497 679 q 353 607 413 618 l 353 607 l 353 465 q 383 363 369 439 q 403 204 396 286 q 406 78 410 122 l 406 78 q 373 -117 397 -29 q 296 -244 349 -204 l 296 -244 l 293 -249 l 292 -247 q 229 -271 261 -269 l 229 -271 q 94 -201 160 -276 q 11 -8 28 -125 l 11 -8 q 59 -124 22 -76 q 141 -188 96 -172 q 221 -178 186 -204 q 263 -72 256 -151 l 263 -72 l 263 421 q 262 445 263 424 q 261 493 261 467 l 261 493 l 261 494 q 260 560 260 522 q 258 606 261 599 l 258 606 q 246 624 253 622 l 246 624 q 240 625 242 624 l 240 625 q 239 632 238 628 l 239 632 q 180 680 208 649 q 138 760 151 711 l 138 760 q 159 863 128 821 q 226 928 190 906 l 226 928 l 225 929 q 243 996 217 981 q 299 1011 269 1011 l 299 1011 l 328 1010 q 257 990 275 1008 q 240 956 239 972 l 240 956 l 240 938 l 239 936 q 294 957 281 960 l 294 957 l 331 956 q 404 940 367 954 q 444 885 442 925 l 444 885 q 438 856 447 865 l 438 856 q 415 846 431 847 l 415 846 q 346 853 381 843 l 346 853 l 311 861 l 279 879 q 235 918 247 897 l 235 918 l 215 883 q 207 779 196 849 l 207 779 q 231 714 214 739 q 267 675 249 689 l 267 675 l 326 768 l 326 769 l 350 804 l 401 724 q 389 729 393 729 l 389 729 q 364 705 375 729 q 353 644 353 681 l 353 644 q 445 660 406 640 q 507 703 485 681 l 507 703 z m 354 -40 l 354 -40 q 383 97 378 21 q 383 241 388 172 q 369 353 378 310 l 369 353 q 356 390 361 392 l 356 390 q 354 390 354 390 l 354 390 q 353 72 354 176 q 354 -40 353 -33 z m 393 899 l 421 910 q 327 949 367 947 q 267 939 288 950 l 267 939 l 244 928 q 325 889 285 890 q 393 899 365 888 l 393 899 z "},"k":{"ha":728,"x_min":65,"x_max":701,"o":"m 675 94 l 675 94 q 665 10 701 40 q 560 6 629 -21 q 418 147 490 33 l 418 147 q 360 254 390 183 q 296 386 331 325 l 296 386 l 315 369 q 365 351 333 353 q 433 394 396 349 l 433 394 l 447 356 q 481 265 460 317 l 481 265 q 520 351 506 301 q 517 465 535 401 l 517 465 l 507 493 q 465 554 497 521 q 365 603 432 588 l 365 603 q 330 606 347 606 q 294 607 313 607 l 294 607 l 294 254 q 310 186 294 215 q 343 150 325 157 l 343 150 l 299 88 l 194 -29 l 82 75 q 147 115 121 83 q 174 189 174 146 l 174 189 l 174 285 q 130 423 133 379 q 165 525 126 467 l 165 525 l 163 525 l 140 526 q 94 507 118 528 q 67 418 71 486 l 67 418 l 67 440 q 73 490 65 463 q 103 534 81 517 q 174 542 126 551 l 174 542 l 174 654 q 167 692 174 678 l 167 692 l 167 696 l 165 696 q 106 761 149 740 l 106 761 l 104 761 l 250 932 l 289 975 l 379 876 q 357 882 371 882 l 357 882 q 313 851 332 882 q 294 776 294 821 l 294 776 l 294 682 q 342 692 317 689 q 394 688 367 694 l 394 688 q 519 608 479 665 q 569 496 558 550 q 576 426 579 442 l 576 426 q 540 326 567 371 q 486 251 514 281 l 486 251 q 537 149 510 204 q 595 60 564 94 q 660 36 626 25 l 660 36 l 668 49 q 669 90 676 60 l 669 90 q 636 133 660 122 l 636 133 q 608 138 619 140 l 608 138 l 613 139 q 641 138 624 144 q 675 94 658 132 z m 261 432 l 261 615 q 246 590 258 613 q 233 528 233 568 q 261 432 232 489 l 261 432 z m 608 138 l 608 138 l 600 133 q 608 138 604 136 z "},"l":{"ha":563,"x_min":49,"x_max":519,"o":"m 436 408 l 436 408 q 478 350 450 399 q 513 230 506 301 q 472 78 519 158 l 472 78 q 390 14 439 31 q 296 -1 342 -3 l 296 -1 l 289 -8 l 278 0 q 256 4 267 3 q 233 8 244 6 l 233 8 l 233 6 q 174 -37 204 -35 q 119 -22 144 -39 q 79 13 94 -6 l 79 13 l 64 31 q 147 -19 114 -19 q 196 -3 179 -19 l 196 -3 l 213 13 l 215 14 q 143 46 150 35 l 143 46 l 124 67 q 83 119 104 88 q 56 188 63 151 q 75 253 49 224 l 75 253 q 124 269 99 281 q 172 228 150 257 q 207 175 193 200 l 207 175 l 219 150 l 224 139 q 228 113 226 128 l 228 113 q 272 197 272 146 l 272 197 l 272 464 q 188 481 225 481 l 188 481 l 149 479 q 147 481 147 479 l 147 481 q 176 488 146 483 l 176 488 q 272 481 213 492 l 272 481 l 272 669 q 263 711 272 685 l 263 711 q 204 771 242 758 l 204 771 l 204 774 l 343 933 l 378 972 l 461 882 q 443 886 453 886 l 443 886 q 400 857 418 886 q 382 788 382 828 l 382 788 l 382 442 q 410 428 397 438 q 436 408 422 419 z m 125 185 l 74 207 q 122 84 88 122 q 186 36 156 46 l 186 36 l 215 26 l 215 44 q 214 63 215 53 l 214 63 l 183 92 q 203 97 192 92 l 203 97 q 125 185 175 161 l 125 185 z m 415 165 l 415 165 q 433 281 440 219 q 382 388 425 342 l 382 388 q 391 232 381 276 q 415 165 401 188 z m 236 22 l 236 22 l 240 25 q 249 28 243 26 l 249 28 l 239 39 q 236 22 236 33 z "},"m":{"ha":874,"x_min":69,"x_max":869,"o":"m 439 665 l 439 665 l 519 561 q 582 579 549 575 q 651 574 615 583 l 651 574 q 821 471 772 538 q 867 326 869 404 q 832 176 865 249 q 755 51 799 103 q 679 -11 711 0 l 679 -11 l 704 13 q 758 76 729 35 q 802 178 788 118 q 796 310 817 238 l 796 310 l 785 343 q 734 416 772 376 q 618 471 696 456 l 618 471 q 517 478 561 485 l 517 478 q 515 476 515 478 l 515 476 l 514 476 l 508 143 q 527 94 508 115 q 572 68 546 72 l 572 68 l 572 67 l 496 -4 l 397 115 q 417 133 408 119 l 417 133 q 341 300 343 228 q 382 436 339 372 l 382 436 l 379 435 l 353 436 q 299 413 326 438 q 265 308 271 389 l 265 308 l 265 310 q 264 317 264 311 l 264 317 l 264 156 q 293 96 264 110 l 293 96 l 204 -10 l 138 53 q 194 119 194 63 l 194 119 l 194 392 q 190 417 194 403 l 190 417 l 189 418 q 156 453 178 443 l 156 453 q 119 458 131 451 l 119 458 l 107 464 l 89 485 q 94 540 69 506 l 94 540 q 144 568 125 579 l 144 568 l 153 563 q 135 563 146 565 l 135 563 q 100 535 114 558 l 100 535 q 93 501 89 511 l 93 501 l 97 492 q 172 499 131 471 q 249 573 213 526 q 308 658 285 619 l 308 658 l 332 696 q 392 648 363 643 q 439 665 421 653 z m 264 464 l 264 346 q 277 401 267 371 q 315 449 288 431 q 393 456 342 467 l 393 456 l 394 453 q 411 476 403 464 q 431 497 419 488 l 431 497 l 431 531 q 418 580 431 560 q 390 600 406 600 l 390 600 q 379 597 381 600 l 379 597 q 340 560 358 576 q 306 531 322 544 l 306 531 l 314 524 q 301 526 306 526 l 301 526 q 274 507 289 515 l 274 507 q 267 486 271 497 q 264 464 264 475 l 264 464 z m 393 426 l 393 426 l 375 396 q 356 305 357 364 q 407 163 356 246 l 407 163 l 415 175 q 431 210 422 188 l 431 210 l 431 367 q 393 426 418 394 z m 431 422 l 431 422 l 431 454 q 414 446 419 449 l 414 446 l 408 442 q 419 433 414 438 q 431 422 425 428 z m 164 557 l 153 563 q 164 557 160 561 l 164 557 z "},"n":{"ha":810,"x_min":57,"x_max":799,"o":"m 549 631 l 549 631 q 742 511 686 588 q 797 347 799 435 q 758 175 794 258 q 670 33 721 92 q 581 -40 619 -25 l 581 -40 l 610 -14 q 672 61 639 13 q 722 178 706 110 q 715 329 739 246 l 715 329 l 701 368 q 644 450 688 406 q 511 511 600 494 l 511 511 q 381 518 435 528 q 300 493 328 508 l 300 493 l 272 478 q 317 429 297 463 q 350 369 338 396 l 350 369 l 363 342 l 372 306 q 385 223 381 269 q 374 143 389 176 q 314 115 360 110 l 314 115 q 294 121 304 117 q 274 128 283 125 l 274 128 q 299 101 281 111 l 299 101 l 271 68 l 210 -1 l 142 61 l 143 61 q 197 124 197 71 l 197 124 l 197 386 q 197 399 197 393 q 194 410 196 404 l 194 410 l 194 411 l 193 411 q 156 449 183 435 l 156 449 l 164 456 q 128 412 144 442 q 108 325 113 382 l 108 325 l 110 378 q 142 468 110 429 l 142 468 q 100 482 111 471 l 100 482 l 88 492 l 72 519 q 94 578 57 547 l 94 578 q 156 600 138 615 l 156 600 l 164 592 q 143 596 156 594 l 143 596 q 99 572 118 596 l 99 572 q 83 535 79 547 l 83 535 l 86 522 q 169 512 118 490 q 271 576 219 533 q 358 657 322 619 l 358 657 l 393 694 q 417 650 404 664 q 443 631 429 636 l 443 631 q 549 631 494 640 z m 272 157 l 272 157 l 293 200 q 315 309 313 243 q 268 443 318 375 l 268 443 l 268 163 q 268 163 268 163 l 268 163 q 272 157 269 164 z m 172 583 l 164 592 q 172 583 169 588 l 172 583 z "},"o":{"ha":868,"x_min":32,"x_max":864,"o":"m 610 643 l 610 643 q 801 488 738 604 q 828 244 864 372 l 828 244 q 712 85 800 149 q 526 6 624 22 l 526 6 q 303 51 407 -15 q 165 229 200 117 l 165 229 q 96 221 118 213 l 96 221 l 74 228 l 61 239 q 40 269 47 249 q 49 321 32 290 l 49 321 q 106 361 81 371 l 106 361 l 119 354 q 94 351 110 356 l 94 351 q 57 315 68 344 l 57 315 q 53 274 44 285 l 53 274 l 60 263 q 108 257 83 249 q 154 285 132 265 l 154 285 q 204 497 140 400 q 378 629 268 594 l 378 629 q 465 686 432 686 l 465 686 l 499 685 l 514 678 q 539 654 529 671 l 539 654 q 574 651 556 654 q 610 643 592 647 z m 353 368 l 349 372 q 497 178 471 250 q 511 81 522 106 l 511 81 q 649 144 588 92 q 733 276 711 196 l 733 276 q 721 465 761 372 q 594 600 681 557 l 594 600 q 539 606 571 606 l 539 606 q 500 567 524 563 l 500 567 l 489 568 q 507 574 497 568 l 507 574 q 532 606 526 583 l 532 606 q 506 605 518 606 q 481 603 494 604 l 481 603 q 418 583 444 596 l 418 583 q 397 538 406 563 q 381 490 388 514 l 381 490 q 432 501 413 485 l 432 501 l 451 517 q 403 448 426 479 q 358 389 379 417 l 358 389 q 354 374 356 379 l 354 374 l 353 368 z m 265 297 l 265 297 q 260 292 263 296 q 254 286 257 289 l 254 286 l 254 282 q 381 94 278 163 l 381 94 q 391 90 386 92 q 400 85 396 88 l 400 85 q 476 78 440 76 l 476 78 q 442 157 481 115 q 353 236 404 199 q 265 297 303 274 z m 519 658 l 518 658 q 474 650 494 665 l 474 650 q 522 656 496 656 l 522 656 q 519 658 521 658 l 519 658 z m 476 569 l 489 568 q 476 569 482 567 l 476 569 z m 129 350 l 119 354 q 129 350 125 353 l 129 350 z "},"p":{"ha":728,"x_min":38,"x_max":746,"o":"m 733 400 l 733 400 q 685 221 746 292 q 560 111 625 150 l 560 111 l 563 111 q 537 7 571 36 q 458 -26 503 -22 q 388 -26 413 -29 l 388 -26 l 388 -28 q 433 -124 388 -104 l 433 -124 l 390 -178 l 296 -285 l 193 -190 q 253 -153 229 -182 q 278 -89 278 -124 l 278 -89 l 278 94 q 209 138 239 110 q 176 210 179 165 l 176 210 q 207 267 175 254 q 278 274 239 279 l 278 274 l 278 333 q 262 392 281 365 q 214 431 243 419 l 214 431 l 350 585 l 382 624 q 247 622 310 638 q 140 578 185 606 q 69 528 94 550 l 69 528 l 43 504 q 39 503 40 503 l 39 503 q 53 522 38 504 l 53 522 q 121 585 74 547 q 237 656 168 624 q 390 696 306 689 l 390 696 q 454 685 407 697 q 558 641 501 674 q 665 550 615 608 q 733 400 714 492 z m 547 131 l 547 131 l 567 157 q 601 238 585 183 q 608 372 617 292 l 608 372 q 556 519 597 468 q 476 589 514 569 l 476 589 l 438 607 q 412 616 425 613 q 388 622 399 619 l 388 622 l 464 536 q 444 542 454 542 l 444 542 q 405 514 422 542 q 388 446 388 486 l 388 446 l 388 251 l 415 240 l 443 224 q 501 182 469 207 q 547 131 533 157 z m 388 68 l 388 -24 q 503 7 474 -22 q 535 65 533 36 l 535 65 l 535 94 l 536 101 q 435 67 460 60 l 435 67 l 422 67 q 388 68 408 67 l 388 68 z m 388 189 l 388 189 l 388 86 q 490 96 453 78 l 490 96 l 528 114 q 458 167 493 150 q 388 189 422 183 z m 232 171 l 214 163 q 248 140 232 150 q 278 122 264 131 l 278 122 l 278 185 q 232 171 250 179 l 232 171 z "},"q":{"ha":897,"x_min":46,"x_max":907,"o":"m 881 -94 l 893 -111 l 900 -128 q 903 -169 907 -146 q 865 -210 899 -192 l 865 -210 q 808 -224 828 -229 q 781 -207 788 -219 l 781 -207 l 774 -197 q 807 -215 782 -210 l 807 -215 q 861 -199 835 -222 l 861 -199 q 889 -164 889 -179 l 889 -164 l 889 -149 q 818 -115 865 -112 q 715 -141 771 -118 q 608 -194 658 -164 q 525 -246 557 -225 l 525 -246 l 490 -281 l 393 -172 q 383 -172 388 -172 l 383 -172 l 378 -174 q 392 -168 386 -171 l 392 -168 l 356 -121 q 400 -28 400 -104 l 400 -28 l 400 -25 q 331 -24 375 -28 q 253 9 286 -21 q 229 114 221 39 l 229 114 l 231 114 q 106 221 165 150 q 57 399 46 292 l 57 399 q 126 547 78 489 q 230 638 174 606 q 333 683 286 671 q 397 694 381 696 l 397 694 q 549 655 481 688 q 664 583 617 622 q 732 518 711 544 l 732 518 q 744 497 746 499 l 744 497 q 740 499 743 497 l 740 499 l 715 522 q 646 572 690 544 q 540 616 601 600 q 406 617 479 632 l 406 617 l 439 582 l 572 428 q 514 372 531 408 l 514 372 l 513 371 l 513 368 q 507 332 507 351 l 507 332 l 507 274 q 578 265 547 278 q 608 208 608 253 l 608 208 q 577 136 607 164 q 507 93 547 108 l 507 93 l 513 -117 q 713 -62 638 -69 q 828 -67 789 -54 q 881 -94 867 -79 l 881 -94 z m 182 372 l 182 372 q 190 237 174 290 q 225 157 206 183 l 225 157 l 244 131 q 289 182 258 157 q 346 224 319 207 l 346 224 l 372 239 l 381 242 q 400 250 389 244 l 400 250 l 400 442 q 383 509 400 482 q 343 536 367 536 l 343 536 q 324 531 333 536 l 324 531 l 400 615 q 375 610 389 614 q 350 601 361 606 l 350 601 l 313 583 q 233 516 274 565 q 182 372 192 467 z m 253 99 l 256 94 l 257 67 q 286 8 257 38 q 400 -21 315 -21 l 400 -21 l 400 69 q 365 68 379 68 l 365 68 l 351 67 q 317 73 344 65 q 253 99 289 81 l 253 99 z m 400 86 l 400 86 l 400 188 q 331 166 365 182 q 264 114 296 150 l 264 114 l 300 96 q 400 86 336 78 z m 507 185 l 507 185 l 507 122 q 539 140 522 131 q 572 161 556 150 l 572 161 l 554 171 q 507 185 536 179 z m 772 -194 l 774 -197 q 772 -194 774 -196 l 772 -194 z "},"r":{"ha":638,"x_min":61,"x_max":633,"o":"m 607 626 l 624 604 l 629 575 q 589 529 633 544 l 589 529 q 528 532 539 511 l 528 532 l 521 546 q 542 532 526 539 l 542 532 q 588 538 563 521 l 588 538 q 614 564 613 551 l 614 564 l 615 575 q 553 613 599 611 q 452 597 507 614 q 351 559 397 581 q 288 529 304 538 l 288 529 l 288 449 q 324 432 306 442 q 358 408 343 422 l 358 408 q 390 365 369 401 q 417 274 411 328 q 388 160 422 219 l 388 160 q 307 106 356 119 l 307 106 l 289 86 l 218 1 l 138 76 q 96 104 113 85 l 96 104 l 78 122 q 138 88 114 88 q 176 94 163 88 l 176 94 q 190 113 185 106 l 190 113 q 139 135 146 124 l 139 135 l 115 163 q 76 226 92 189 q 88 292 61 263 l 88 292 q 114 307 100 307 l 114 307 q 136 297 125 307 l 136 297 q 179 244 161 275 l 179 244 l 196 213 l 199 206 q 204 188 201 199 l 204 188 l 204 457 q 161 463 178 463 l 161 463 l 143 461 q 142 463 142 461 l 142 463 q 156 467 142 464 l 156 467 q 204 465 172 468 l 204 465 l 204 485 q 203 499 204 492 q 199 513 201 506 l 199 513 l 199 514 l 197 514 q 153 560 188 547 l 153 560 l 258 679 l 285 711 l 338 653 q 530 663 469 678 q 607 626 590 649 l 607 626 z m 353 332 l 343 354 q 288 422 321 400 l 288 422 l 294 163 l 310 178 q 325 196 317 185 l 325 196 q 359 274 357 238 q 353 332 361 310 l 353 332 z m 113 246 l 85 258 q 122 165 96 194 q 172 128 149 135 l 172 128 l 194 119 q 167 203 194 174 q 113 246 139 233 l 113 246 z m 517 553 l 521 546 q 517 553 518 549 l 517 553 z "},"s":{"ha":568,"x_min":81,"x_max":540,"o":"m 519 8 l 540 3 q 363 2 436 -3 q 239 17 289 7 l 239 17 q 168 -15 203 -26 q 111 21 133 -4 l 111 21 l 88 46 q 174 3 142 -6 q 218 22 207 11 l 218 22 q 126 64 153 40 q 93 106 99 88 l 93 106 l 88 124 l 88 135 q 92 160 86 146 l 92 160 q 82 208 82 183 q 100 254 82 232 l 100 254 q 144 268 121 279 q 187 231 167 257 q 219 182 207 206 l 219 182 l 232 158 l 239 138 q 247 89 244 115 l 247 89 q 327 93 292 89 q 389 135 363 97 l 389 135 q 431 231 428 188 q 424 303 433 275 l 424 303 l 413 329 q 406 342 408 336 l 406 342 l 400 353 q 340 324 378 329 q 271 324 301 319 l 271 324 l 240 326 q 185 360 225 326 l 185 360 l 185 357 l 182 339 q 195 298 179 319 q 269 265 211 276 l 269 265 l 238 269 q 179 294 206 272 q 169 369 153 317 l 169 369 l 171 371 q 108 452 136 401 q 103 567 81 503 l 103 567 q 192 665 133 638 q 305 694 251 692 q 372 692 358 696 l 372 692 q 476 633 439 672 q 528 565 514 594 l 528 565 q 535 540 538 542 l 535 540 q 532 542 533 540 l 532 542 l 521 567 q 471 614 508 590 q 358 635 433 638 q 234 587 283 632 q 169 483 185 542 q 182 379 154 424 l 182 379 q 238 415 199 401 l 238 415 l 275 429 l 285 432 q 308 435 294 433 l 308 435 q 213 461 257 460 l 213 461 l 168 461 q 313 469 235 481 q 449 413 390 457 q 519 290 507 368 q 469 101 532 213 l 469 101 q 481 35 463 56 q 519 8 499 14 l 519 8 z m 190 368 l 190 368 l 213 353 q 277 331 233 336 q 386 358 321 326 l 386 358 l 358 375 q 285 397 329 392 q 190 368 240 403 z m 135 111 l 135 111 q 173 95 150 100 q 222 89 196 90 l 222 89 q 190 150 213 126 q 146 188 168 174 l 146 188 l 144 188 q 108 164 117 176 l 108 164 q 121 135 115 149 q 135 111 126 122 z m 136 194 l 136 194 q 107 208 118 204 l 107 208 l 96 211 q 101 194 99 201 q 104 178 103 186 l 104 178 q 136 194 114 190 z "},"t":{"ha":753,"x_min":36,"x_max":689,"o":"m 633 719 l 633 719 q 684 673 679 703 q 651 617 689 643 q 528 588 613 592 q 308 618 443 583 l 308 618 q 308 481 311 526 q 306 428 304 436 l 306 428 q 369 422 344 442 q 396 370 394 403 q 363 311 397 338 l 363 311 q 370 261 367 288 q 376 207 374 235 l 376 207 l 357 236 q 311 283 338 265 l 311 283 q 326 153 297 182 q 382 117 356 125 l 382 117 l 363 90 q 477 72 419 53 q 577 144 535 90 q 634 269 619 199 q 621 407 649 340 l 621 407 q 655 259 661 347 q 604 90 649 171 q 485 -33 560 10 q 311 -48 410 -75 q 100 110 213 -21 l 100 110 q 215 60 190 60 l 215 60 q 229 64 225 58 l 229 64 q 229 88 235 71 l 229 88 q 201 158 219 117 q 186 232 183 199 l 186 232 l 183 232 q 131 279 139 251 q 133 334 122 307 q 158 379 144 361 l 158 379 l 172 397 q 141 308 135 339 q 165 265 147 276 l 165 265 l 183 253 q 203 278 196 260 q 213 356 211 297 q 207 540 215 415 l 207 540 q 172 683 199 621 q 88 746 144 744 l 88 746 q 53 708 60 746 q 61 633 46 669 l 61 633 q 93 601 71 606 l 93 601 q 60 618 76 601 l 60 618 q 39 686 42 635 l 39 686 q 54 755 36 736 q 100 776 72 774 q 156 779 128 779 q 200 792 183 779 l 200 792 l 326 972 l 410 833 q 363 832 385 846 q 308 724 340 818 l 308 724 q 393 685 340 708 q 502 647 446 663 q 603 633 558 631 q 664 669 649 635 l 664 669 l 663 683 q 632 711 661 696 l 632 711 q 582 717 606 726 l 582 717 q 561 704 567 711 l 561 704 l 568 717 q 633 719 581 739 z m 93 601 l 93 601 q 94 601 93 601 l 94 601 l 111 601 q 93 601 101 600 z m 561 704 l 561 704 l 556 694 q 561 704 557 699 z "},"u":{"ha":558,"x_min":54,"x_max":564,"o":"m 518 131 l 524 131 q 551 109 538 126 q 557 49 564 92 l 557 49 q 529 -3 551 10 q 488 -14 507 -15 l 488 -14 l 468 -14 l 450 -7 q 408 27 432 -1 q 364 119 383 56 l 364 119 q 306 34 342 67 q 226 0 269 1 l 226 0 q 105 89 156 0 q 54 306 54 178 l 54 306 q 85 479 54 403 q 163 590 115 556 l 163 590 q 99 463 107 543 q 113 301 90 383 q 178 158 136 218 q 263 92 219 99 l 263 92 q 358 147 319 82 l 358 147 q 342 313 344 211 l 342 313 q 329 314 338 314 l 329 314 l 333 319 q 342 333 336 324 l 342 333 l 350 513 l 357 485 q 393 436 363 456 l 393 436 q 437 582 425 507 q 399 683 449 657 l 399 683 l 385 682 q 353 653 371 681 l 353 653 q 346 603 335 626 l 346 603 q 368 575 356 581 l 368 575 l 357 579 q 337 603 344 585 q 344 657 329 621 l 344 657 q 378 696 357 690 q 417 696 400 701 l 417 696 l 433 690 l 453 678 q 487 620 471 664 q 497 488 503 576 q 443 249 492 399 l 443 249 q 440 94 432 168 q 504 7 449 19 l 504 7 l 519 11 q 546 49 533 14 l 546 49 q 542 108 558 82 l 542 108 q 518 131 531 125 l 518 131 z m 518 131 l 508 133 q 518 131 514 133 l 518 131 z m 368 575 l 368 575 l 369 574 q 368 575 368 574 z "},"v":{"ha":563,"x_min":83,"x_max":529,"o":"m 438 682 l 438 682 q 520 532 511 647 q 469 286 529 417 l 469 286 q 385 153 435 210 q 283 69 335 97 l 283 69 q 286 69 285 69 q 289 68 288 68 l 289 68 l 210 -4 l 139 78 l 107 119 q 142 192 142 132 l 142 192 l 142 551 q 128 603 142 583 q 99 624 115 624 l 99 624 q 90 623 94 624 q 83 622 86 622 l 83 622 l 143 689 l 169 660 l 172 658 l 219 606 q 331 683 272 661 q 438 682 390 706 z m 424 260 l 424 260 q 469 483 481 378 q 388 622 457 589 l 388 622 q 231 590 318 654 l 231 590 l 272 542 q 235 511 246 536 q 224 405 225 486 q 224 146 222 324 l 224 146 q 275 74 224 92 l 275 74 q 357 149 317 101 q 424 260 397 197 z "},"w":{"ha":847,"x_min":114,"x_max":807,"o":"m 715 683 l 715 683 q 798 535 789 649 q 747 294 807 421 l 747 294 q 653 151 710 210 q 540 68 597 92 l 540 68 l 464 -3 l 399 75 q 372 7 400 25 l 372 7 q 303 -5 342 -12 q 247 24 265 3 l 247 24 l 233 42 q 197 129 218 60 q 160 351 176 199 l 160 351 l 149 351 l 157 371 q 151 451 153 408 q 150 546 150 494 l 150 546 l 158 519 q 197 476 167 492 l 197 476 q 226 620 221 547 q 178 714 231 693 l 178 714 l 165 713 q 138 683 153 711 l 138 683 q 136 632 124 656 l 136 632 q 150 613 143 618 l 150 613 l 138 618 q 128 683 114 628 l 128 683 q 159 723 139 715 q 196 728 179 731 l 196 728 l 213 724 l 232 713 q 271 661 251 701 q 293 535 290 621 q 264 300 296 450 l 264 300 q 274 150 260 221 q 344 71 289 79 l 344 71 l 363 68 q 388 86 379 64 l 388 86 l 363 119 q 383 138 375 122 l 383 138 q 367 181 382 165 l 367 181 q 349 193 357 190 l 349 193 l 361 192 q 389 150 383 189 l 389 150 q 397 189 397 167 l 397 189 l 397 544 q 384 594 397 574 q 354 615 371 615 l 354 615 q 342 611 346 615 l 342 611 l 400 679 l 425 647 l 482 586 q 601 678 538 651 q 715 683 664 706 z m 703 264 l 703 264 q 747 485 757 381 q 668 622 736 590 l 668 622 q 582 627 629 640 q 490 575 535 614 l 490 575 l 526 533 l 525 533 q 497 519 506 529 q 487 472 489 508 q 484 359 485 436 q 478 146 483 282 l 478 146 q 535 69 478 89 l 535 69 q 703 264 636 122 z m 150 613 l 150 613 l 161 607 q 150 613 156 607 z m 349 193 l 349 193 l 338 194 q 349 193 343 194 z m 342 611 l 342 611 l 340 610 q 342 611 340 610 z "},"x":{"ha":881,"x_min":67,"x_max":865,"o":"m 814 710 l 833 701 l 850 685 q 844 638 865 667 l 844 638 q 803 614 819 606 l 803 614 l 793 618 q 813 619 801 617 l 813 619 q 839 643 831 624 l 839 643 q 846 671 849 663 l 846 671 l 842 678 q 776 670 811 697 q 708 603 740 643 l 708 603 q 627 478 664 518 q 564 428 590 439 l 564 428 q 561 399 568 414 l 561 399 l 561 394 q 692 240 654 306 q 736 132 731 174 q 733 69 742 90 l 733 69 l 725 49 l 711 31 q 667 3 696 13 q 597 18 639 -7 l 597 18 q 545 71 551 46 q 549 113 539 96 l 549 113 l 551 118 q 554 79 547 104 l 554 79 q 606 28 563 43 l 606 28 q 663 21 647 11 l 663 21 l 678 31 q 677 118 700 74 q 606 205 654 163 q 503 282 558 247 l 503 282 q 487 288 494 285 q 472 294 479 292 l 472 294 q 469 290 471 293 q 467 283 468 286 l 467 283 q 485 188 481 253 q 436 61 490 124 l 436 61 q 344 25 393 22 q 258 44 296 28 l 258 44 q 147 -3 183 -11 l 147 -3 l 110 6 l 96 17 q 74 47 82 26 q 83 96 67 67 l 83 96 q 138 138 113 147 l 138 138 l 149 133 q 125 131 139 135 l 125 131 q 89 92 100 122 l 89 92 q 88 50 79 61 l 88 50 l 96 38 q 164 46 128 24 l 164 46 q 144 72 150 58 l 144 72 l 138 86 q 169 49 154 64 l 169 49 q 203 79 189 63 l 203 79 q 199 83 201 82 q 196 85 197 83 l 196 85 l 179 115 q 154 183 161 144 q 178 243 147 221 l 178 243 q 219 245 201 261 q 247 202 236 229 q 263 160 258 175 l 263 160 q 269 172 268 168 l 269 172 q 357 351 314 289 l 357 351 q 297 385 328 367 l 297 385 q 272 392 282 389 l 272 392 l 263 393 q 261 394 261 393 l 261 394 q 265 396 261 394 l 265 396 q 283 394 271 396 l 283 394 q 133 524 169 468 q 100 613 97 581 l 100 613 l 103 644 l 113 664 q 143 698 121 683 q 204 699 165 713 l 204 699 q 260 663 250 685 q 267 626 271 642 l 267 626 l 264 618 q 256 656 265 633 l 256 656 q 201 689 240 685 l 201 689 q 150 682 163 694 l 150 682 l 138 669 q 160 588 126 625 q 251 524 193 551 q 367 479 308 497 l 367 479 q 354 550 375 521 l 354 550 l 333 578 q 478 468 414 522 l 478 468 q 483 470 481 469 q 489 472 486 471 l 489 472 l 489 474 q 490 475 489 474 l 490 475 q 519 503 504 507 l 519 503 l 528 500 q 513 497 522 500 l 513 497 q 494 472 497 492 l 494 472 q 513 472 506 475 l 513 472 l 519 469 l 531 467 q 550 454 540 464 l 550 454 q 581 494 567 469 q 606 544 594 519 l 606 544 q 571 542 586 551 l 571 542 l 556 532 q 594 577 575 557 q 629 613 613 597 l 629 613 q 633 622 632 619 l 633 622 l 633 625 l 638 621 q 751 702 708 688 q 814 710 794 717 l 814 710 z m 385 107 l 385 107 q 433 181 426 143 q 436 239 439 219 l 436 239 q 410 205 422 221 q 386 174 397 189 l 386 174 q 385 158 385 164 l 385 158 l 385 153 q 380 157 382 156 q 375 160 378 158 l 375 160 q 275 57 324 96 l 275 57 q 321 67 292 58 q 385 107 350 76 z m 199 192 l 169 213 q 181 132 168 163 q 210 85 194 101 l 210 85 q 226 106 218 96 q 242 126 235 117 l 242 126 q 199 192 228 171 l 199 192 z m 556 400 l 556 401 q 554 424 556 417 l 554 424 q 535 419 544 419 l 535 419 q 545 410 540 414 q 556 400 550 406 l 556 400 z m 414 296 l 414 296 q 411 286 413 292 q 407 275 410 281 l 407 275 l 425 275 q 414 296 419 288 z m 540 446 l 540 446 q 507 443 522 450 l 507 443 q 525 439 518 442 l 525 439 q 540 446 535 442 z m 464 290 l 464 290 l 468 293 q 471 294 469 293 l 471 294 q 465 299 468 297 q 456 303 461 300 l 456 303 q 460 297 458 300 q 464 290 461 293 z m 163 128 l 149 133 q 163 128 157 132 l 163 128 z m 557 128 l 551 118 q 557 128 554 124 l 557 128 z m 786 622 l 793 618 q 786 622 789 619 l 786 622 z m 261 610 l 264 618 q 261 610 263 614 l 261 610 z m 535 499 l 528 500 q 535 499 532 500 l 535 499 z "},"y":{"ha":744,"x_min":7,"x_max":715,"o":"m 483 96 l 483 96 q 536 40 500 88 q 592 -81 572 -7 q 575 -243 611 -154 l 575 -243 q 465 -339 533 -319 q 335 -353 396 -358 l 335 -353 l 336 -354 q 281 -408 313 -401 q 222 -402 250 -415 q 175 -372 193 -389 l 175 -372 l 156 -356 q 249 -394 215 -399 q 297 -371 283 -390 l 297 -371 l 311 -351 l 315 -349 q 238 -328 251 -342 l 238 -328 l 214 -308 q 163 -260 190 -290 q 124 -193 136 -229 q 135 -122 113 -157 l 135 -122 q 182 -99 154 -90 q 236 -133 210 -107 q 281 -183 263 -160 l 281 -183 l 299 -208 l 319 -253 q 335 -335 339 -299 l 335 -335 l 386 -312 q 482 -207 436 -292 l 482 -207 q 513 -91 518 -142 q 492 -11 508 -40 l 492 -11 l 475 18 q 396 92 442 64 l 396 92 q 383 86 389 88 l 383 86 l 378 83 l 346 82 q 260 132 313 81 l 260 132 q 201 129 224 133 l 201 129 l 178 124 q 175 124 175 124 l 175 124 q 189 132 174 126 l 189 132 q 247 142 210 139 l 247 142 q 190 214 226 165 q 138 301 154 263 l 138 301 q 74 446 107 365 l 74 446 l 90 426 q 136 406 106 407 l 136 406 q 115 536 135 472 q 43 600 94 600 l 43 600 l 33 594 q 18 558 22 588 l 18 558 q 33 515 15 531 l 33 515 q 49 504 42 507 l 49 504 l 39 506 q 11 557 14 506 l 11 557 q 38 611 7 603 l 38 611 l 67 619 l 86 617 q 136 586 106 614 q 198 487 167 558 q 251 278 229 415 l 251 278 q 283 203 265 239 q 322 142 300 167 l 322 142 q 365 137 343 140 q 407 125 386 133 l 407 125 q 411 129 410 129 l 411 129 q 414 163 418 140 l 414 163 q 386 210 408 196 l 386 210 q 365 218 374 217 l 365 218 l 378 219 q 421 167 403 224 l 421 167 q 425 139 425 157 l 425 139 q 529 225 483 167 q 598 355 575 283 q 610 494 621 426 q 543 610 599 563 l 543 610 q 472 615 519 632 q 374 560 424 597 q 294 481 325 522 l 294 481 q 397 592 329 538 q 532 676 464 646 q 636 688 600 706 l 636 688 q 706 565 697 661 q 665 363 715 469 l 665 363 q 574 222 622 274 q 443 118 525 171 l 443 118 q 483 96 464 108 z m 178 -181 l 138 -169 q 209 -292 167 -257 q 285 -332 251 -326 l 285 -332 l 317 -337 q 261 -227 306 -262 q 178 -181 217 -192 l 178 -181 z m 49 504 l 49 504 l 64 504 q 49 504 57 501 z m 365 218 l 365 218 l 351 215 q 365 218 357 218 z "},"z":{"ha":660,"x_min":78,"x_max":660,"o":"m 415 165 l 415 165 q 660 139 517 163 l 660 139 l 631 135 q 575 101 600 129 q 564 0 550 72 l 564 0 l 503 22 q 361 60 440 44 l 361 60 q 349 50 353 51 l 349 50 q 251 15 301 19 q 169 17 200 10 l 169 17 q 146 22 146 21 l 146 22 q 147 24 146 24 l 147 24 l 175 22 q 242 28 203 19 q 315 71 282 36 l 315 71 q 179 74 242 83 q 99 13 117 65 l 99 13 l 103 -3 q 143 -36 107 -19 q 207 -35 179 -53 l 207 -35 q 235 -10 229 -22 l 235 -10 l 232 -18 q 208 -44 228 -33 q 142 -44 189 -56 l 142 -44 q 89 -12 100 -35 q 81 32 78 11 l 81 32 l 82 53 l 89 74 q 131 114 96 93 l 131 114 l 107 194 q 104 206 104 203 l 104 206 l 104 207 q 118 262 100 235 q 156 307 136 289 l 156 307 l 175 324 q 192 331 178 325 q 225 339 206 336 l 225 339 l 224 340 l 214 353 q 182 368 204 365 q 122 339 160 371 l 122 339 l 142 357 q 189 379 161 375 q 240 342 217 383 l 240 342 l 239 340 q 256 342 246 342 l 256 342 l 354 510 q 363 535 360 519 l 363 535 l 364 536 l 364 551 q 353 551 358 551 q 342 550 347 550 l 342 550 q 332 543 335 546 l 332 543 l 328 540 l 328 550 q 167 565 215 546 q 107 607 118 585 l 107 607 l 94 628 l 94 654 q 133 690 94 681 l 133 690 q 188 681 179 700 l 188 681 l 190 671 q 176 683 186 676 l 176 683 q 135 685 158 694 l 135 685 q 110 663 113 674 l 110 663 l 106 651 q 170 613 118 613 q 278 626 222 614 l 278 626 q 444 672 382 665 q 538 669 507 679 q 581 647 569 660 l 581 647 l 590 635 l 596 607 q 569 563 601 578 l 569 563 q 522 563 532 546 l 522 563 l 517 569 q 532 563 522 565 l 532 563 q 568 568 550 556 l 568 568 q 586 597 585 583 l 586 597 l 586 610 q 536 635 571 635 l 536 635 l 546 571 l 546 568 q 536 581 543 576 l 536 581 q 501 577 522 589 q 464 540 481 565 l 464 540 l 342 329 q 401 276 375 317 l 401 276 q 416 218 414 246 q 415 165 418 190 z m 314 283 l 288 238 q 279 161 258 192 l 279 161 q 319 165 299 164 q 363 167 339 165 l 363 167 q 359 206 364 183 q 340 250 354 228 l 340 250 q 328 269 335 260 q 314 283 321 278 l 314 283 z m 228 331 l 228 331 l 207 326 q 158 297 185 321 q 114 215 131 274 l 114 215 l 140 224 q 194 257 167 232 q 228 331 222 282 z m 240 317 l 247 329 q 242 331 244 331 l 242 331 l 239 331 q 240 317 240 325 l 240 317 z m 511 578 l 517 569 q 511 578 513 572 l 511 578 z m 194 660 l 190 671 q 194 660 194 665 l 194 660 z m 235 -10 l 235 -10 l 236 -3 q 235 -10 236 -6 z "},"A":{"ha":1026,"x_min":-99,"x_max":986,"o":"m 978 149 l 978 149 q 878 -66 986 40 q 593 -232 769 -172 l 593 -232 q 724 -155 667 -200 q 817 -61 782 -110 l 817 -61 q 724 -39 771 -67 q 648 35 678 -11 q 617 128 618 81 q 663 207 617 175 l 663 207 q 629 109 617 158 q 685 24 642 60 q 776 -19 728 -11 q 853 3 825 -28 q 861 121 881 35 l 861 121 q 763 253 843 201 q 565 320 683 304 q 313 307 447 336 l 313 307 l 310 276 q 308 208 307 246 q 323 149 310 171 q 368 144 336 126 l 368 144 l 242 0 l 178 57 q 182 67 179 60 l 182 67 q 199 153 190 94 q 203 278 207 213 l 203 278 q -99 57 -17 200 l -99 57 q 11 199 -68 131 q 203 315 90 268 l 203 315 q 203 429 203 365 q 205 550 204 493 q 206 636 206 607 l 206 636 q 192 688 206 679 q 164 692 178 696 l 164 692 l 150 686 l 179 721 q 65 717 107 707 q 7 743 24 728 l 7 743 l -10 758 l -22 781 q -36 836 -36 803 q 6 901 -36 869 l 6 901 q 80 936 51 939 q 121 918 108 933 l 121 918 l 126 911 q 83 925 114 922 l 83 925 q 11 890 43 926 l 11 890 q -15 835 -19 854 l -15 835 l -11 814 q 82 783 25 774 q 203 829 139 792 q 328 916 268 867 q 432 1008 388 965 q 492 1067 476 1050 l 492 1067 q 542 1010 519 1038 q 586 956 564 983 l 586 956 q 647 956 619 947 l 647 956 l 675 964 q 642 943 658 954 q 611 922 626 932 l 611 922 q 844 576 764 724 q 952 323 924 428 q 978 149 981 218 z m 325 772 l 313 353 q 526 386 419 376 q 749 367 633 396 l 749 367 q 592 542 681 458 q 428 688 503 626 q 325 772 353 750 l 325 772 z m 169 64 l 178 57 q 174 51 175 51 l 174 51 q 169 64 171 51 l 169 64 z m 133 903 l 126 911 q 133 903 131 907 l 133 903 z "},"B":{"ha":868,"x_min":-186,"x_max":825,"o":"m 593 526 l 593 526 q 685 469 638 508 q 760 371 733 429 q 769 238 788 313 l 769 238 q 688 102 744 153 q 568 27 632 51 q 453 -4 504 3 q 385 -8 401 -11 l 385 -8 q 244 42 306 6 q 140 118 182 78 q 82 185 99 158 l 82 185 q 71 203 69 203 l 71 203 q 74 201 71 204 l 74 201 l 107 167 q 201 96 140 131 q 346 60 263 61 l 346 60 l 271 124 q 281 126 274 122 q 297 167 289 129 q 308 303 306 206 l 308 303 l 307 301 l 308 329 q 308 397 308 356 l 308 397 q 244 412 271 397 q 222 467 217 426 l 222 467 q 251 527 226 504 q 308 563 276 550 l 308 563 q 310 649 310 608 l 310 649 l 310 710 q 306 739 310 729 l 306 739 q 297 740 303 740 l 297 740 q 227 710 260 743 q 178 619 194 676 l 178 619 q 203 692 185 656 q 262 778 221 728 q 381 908 303 829 l 381 908 q 190 931 288 931 l 190 931 q -25 901 74 931 q -186 824 -124 872 l -186 824 q -11 925 -125 886 q 242 974 103 964 l 242 974 q 567 966 431 989 q 765 886 704 943 q 788 738 825 829 q 593 526 751 647 z m 628 267 l 628 267 q 628 398 643 343 q 596 483 614 453 l 596 483 l 576 513 q 531 469 561 490 q 475 436 500 449 l 475 436 l 450 424 l 442 421 q 421 414 432 417 l 421 414 l 421 257 q 435 204 421 214 q 463 200 449 194 l 463 200 l 476 206 l 351 60 q 393 64 371 61 q 438 74 415 67 l 438 74 l 478 86 q 565 138 518 97 q 628 267 611 179 z m 651 681 l 651 681 q 599 824 651 764 q 383 907 547 883 l 383 907 l 458 843 q 449 840 457 844 l 449 840 q 432 799 440 836 q 421 664 424 763 l 421 664 l 422 664 l 422 582 q 463 583 446 583 l 463 583 l 478 582 q 514 574 486 579 q 568 542 542 569 l 568 542 l 568 546 l 569 576 q 542 636 571 606 q 424 671 514 667 l 424 671 l 450 672 q 511 667 476 674 q 572 635 546 660 q 596 561 597 611 l 596 561 q 651 681 651 614 z m 453 475 l 453 475 q 558 529 517 499 l 558 529 q 520 552 556 532 q 422 567 485 572 l 422 567 l 422 521 q 421 469 422 496 l 421 469 q 453 475 440 472 z m 263 508 l 263 508 l 276 490 q 311 471 289 472 l 311 471 q 310 502 311 482 q 308 535 308 522 l 308 535 q 263 508 281 528 z m 458 843 l 458 843 q 458 843 458 843 l 458 843 z "},"C":{"ha":1233,"x_min":36,"x_max":1210,"o":"m 1142 203 l 1201 256 q 1207 257 1206 258 l 1207 257 q 1188 229 1210 256 l 1188 229 q 1088 138 1156 192 q 922 46 1019 85 l 922 46 q 799 7 869 15 l 799 7 q 779 6 789 7 q 760 6 769 6 l 760 6 q 743 4 749 6 l 743 4 q 658 19 721 3 q 522 78 596 35 q 383 197 447 121 q 294 393 319 274 l 294 393 q 283 606 264 497 l 283 606 l 283 608 q 197 456 232 543 l 197 456 q 147 241 151 346 q 174 63 142 136 l 174 63 q 128 265 126 139 q 185 528 129 392 l 185 528 q 286 704 226 626 l 286 704 q 303 885 290 785 l 303 885 q 218 958 257 918 l 218 958 q 81 1163 125 1056 q 50 1350 36 1269 l 50 1350 q 88 1190 49 1278 q 204 1024 128 1101 l 204 1024 q 308 936 254 972 l 308 936 q 310 950 310 943 q 313 963 311 957 l 313 963 l 314 954 q 317 931 314 944 l 317 931 q 379 897 349 911 q 439 874 410 883 l 439 874 q 532 935 481 910 l 532 935 q 681 979 601 971 l 681 979 q 677 1104 694 1035 q 615 1243 660 1174 l 615 1243 q 735 983 719 1111 l 735 983 q 975 917 863 983 q 1147 728 1088 850 l 1147 728 q 957 859 1069 818 q 726 881 844 900 l 726 881 q 701 835 718 856 l 701 835 q 776 826 724 833 q 886 801 828 819 q 986 744 944 782 q 1029 643 1028 706 l 1029 643 q 994 570 1031 588 q 906 557 958 553 q 804 576 853 561 q 731 600 756 590 l 731 600 q 700 400 733 503 l 700 400 q 697 617 724 522 l 697 617 q 616 674 668 635 q 543 751 564 713 l 543 751 l 518 717 q 470 611 492 682 q 458 432 449 540 l 458 432 q 487 315 465 364 q 535 231 508 267 l 535 231 q 558 269 549 247 l 558 269 q 557 358 578 319 l 557 358 q 525 393 540 385 l 525 393 l 532 392 q 569 360 553 386 q 572 269 586 333 l 572 269 q 549 215 564 235 l 549 215 q 639 143 596 163 l 639 143 l 681 124 q 811 94 749 97 q 928 101 874 90 l 928 101 q 939 144 942 124 l 939 144 q 899 204 936 181 q 810 233 863 228 l 810 233 q 928 207 879 233 q 982 139 978 181 l 982 139 q 981 115 983 132 l 981 115 q 1142 203 1082 150 l 1142 203 z m 943 692 l 979 706 q 807 798 885 779 q 675 810 729 817 l 675 810 l 672 807 q 724 679 711 757 l 724 679 q 849 670 790 663 q 943 692 907 678 l 943 692 z m 525 393 l 525 393 l 511 396 q 525 393 518 396 z "},"D":{"ha":974,"x_min":3,"x_max":928,"o":"m 825 907 l 825 907 q 915 682 903 793 q 903 477 928 571 q 844 321 879 383 q 789 242 808 258 l 789 242 q 605 125 703 164 q 422 71 507 86 l 422 71 l 360 0 l 293 56 q 236 60 254 54 l 236 60 q 224 65 224 63 l 224 65 q 229 68 224 67 l 229 68 l 243 68 q 278 69 256 68 l 278 69 l 268 78 q 281 81 271 76 q 300 129 290 85 q 314 292 310 174 l 314 292 l 311 290 l 313 333 q 313 440 313 375 q 313 576 313 506 q 314 703 314 647 l 314 703 q 273 622 300 671 q 210 532 246 574 q 133 478 174 490 q 50 508 92 467 l 50 508 q 4 610 6 554 q 26 724 3 667 q 82 828 50 781 q 139 904 114 875 l 139 904 l 164 933 q 202 969 169 943 q 300 1006 235 994 l 300 1006 l 294 1010 l 275 1031 q 218 1062 256 1050 q 126 1054 181 1074 q 3 956 72 1035 l 3 956 l 21 982 q 71 1039 39 1007 q 145 1090 103 1071 q 236 1097 188 1108 q 336 1022 285 1085 l 336 1022 l 336 1017 q 498 1046 411 1040 q 670 1022 585 1051 q 825 907 756 992 z m 742 385 l 742 385 l 756 419 q 773 513 768 454 q 757 648 778 572 q 668 804 736 724 l 668 804 q 561 903 614 865 q 464 960 508 940 l 464 960 l 492 935 q 479 933 489 938 l 479 933 q 460 883 469 928 q 447 719 450 838 l 447 719 l 447 518 q 447 354 447 433 q 446 238 446 275 l 446 238 q 463 174 446 185 q 497 169 481 163 l 497 169 l 514 175 l 456 110 q 615 206 536 140 q 742 385 694 271 z m 42 599 l 42 599 l 92 622 q 199 700 140 646 q 289 843 258 754 l 289 843 q 261 843 275 850 l 261 843 l 246 836 l 303 900 q 307 981 308 942 l 307 981 l 272 969 q 188 919 236 957 q 97 806 139 882 q 42 599 56 729 z m 349 958 l 374 985 q 351 988 360 988 l 351 988 l 343 988 q 347 973 346 981 q 349 958 347 965 l 349 958 z m 492 935 l 492 935 q 492 935 492 935 l 492 935 z "},"&":{"ha":1050,"x_min":119,"x_max":1039,"o":"m 950 568 l 979 565 l 996 557 q 1026 528 1013 549 q 1025 472 1039 508 l 1025 472 q 992 424 1011 433 q 960 419 974 415 l 960 419 l 953 422 q 986 429 967 419 l 986 429 q 1017 476 1011 442 l 1017 476 q 1011 524 1022 513 l 1011 524 l 1000 533 q 928 515 961 544 q 869 435 894 485 q 826 332 844 385 l 826 332 q 890 342 864 324 l 890 342 l 915 360 q 854 282 885 319 l 854 282 l 922 42 l 924 40 l 938 -14 l 811 7 q 828 15 822 10 l 828 15 q 826 63 842 31 q 775 128 811 96 l 775 128 l 743 157 q 546 6 647 40 q 358 -7 444 -29 q 215 68 271 15 l 215 68 q 144 219 144 136 q 167 365 144 301 l 167 365 l 165 365 q 121 444 119 407 q 145 508 122 481 q 192 553 168 536 l 192 553 l 215 568 q 144 475 149 515 q 158 414 140 435 l 158 414 l 175 392 l 176 388 q 203 444 189 422 q 224 469 218 465 l 224 469 l 253 492 q 322 532 282 514 l 322 532 q 249 551 274 563 l 249 551 l 224 622 l 183 768 l 215 765 q 233 847 214 808 l 233 847 l 253 886 q 303 931 258 901 l 303 931 l 300 932 l 283 942 q 238 942 265 951 q 182 879 211 933 l 182 879 l 197 910 q 241 958 211 939 q 317 942 271 976 l 317 942 l 318 940 q 418 974 360 964 q 532 943 476 985 l 532 943 q 602 828 590 890 q 603 719 614 767 q 583 660 592 672 l 583 660 q 517 594 554 619 q 446 553 479 568 l 446 553 l 454 544 q 483 522 468 538 l 483 522 q 488 516 486 519 q 492 510 490 513 l 492 510 l 701 324 q 723 361 713 343 q 743 396 733 379 l 743 396 q 744 400 743 399 l 744 400 l 744 400 q 746 404 744 404 l 746 404 q 747 401 746 404 l 747 401 q 869 538 817 506 q 950 568 921 569 l 950 568 z m 185 361 l 185 361 l 188 332 q 211 257 190 303 q 285 160 232 211 l 285 160 q 341 118 313 133 q 396 94 369 103 l 396 94 q 411 135 399 117 l 411 135 q 460 181 438 176 q 496 178 482 186 l 496 178 l 503 174 q 467 174 490 179 l 467 174 q 419 129 435 165 l 419 129 q 411 92 411 110 l 411 92 q 559 115 496 76 q 657 235 622 154 l 657 235 l 453 419 q 379 378 418 393 l 379 378 l 339 363 l 311 358 q 247 353 283 354 q 185 361 210 351 z m 326 758 l 328 757 l 329 757 q 325 690 314 728 q 371 621 336 651 l 371 621 l 438 561 q 505 617 471 581 q 549 715 539 654 l 549 715 l 551 743 q 539 808 553 769 q 475 883 525 847 l 475 883 q 369 929 414 931 l 369 929 l 324 926 q 340 863 339 903 l 340 863 l 342 821 l 338 801 q 326 758 333 782 l 326 758 z m 343 518 l 343 518 q 243 467 276 500 q 200 410 210 435 l 200 410 l 189 383 q 317 407 267 375 q 394 474 367 439 l 394 474 l 358 506 q 343 518 347 514 z m 308 921 l 308 921 l 289 908 q 249 860 268 894 q 232 764 231 826 l 232 764 l 265 763 q 306 825 288 785 q 308 921 324 865 z m 510 169 l 503 174 q 510 169 507 172 l 510 169 z m 946 424 l 953 422 q 946 424 949 422 l 946 424 z "},"?":{"ha":636,"x_min":26,"x_max":621,"o":"m 607 876 l 607 876 q 574 726 621 788 q 471 631 526 665 l 471 631 l 476 631 q 458 547 486 571 q 397 515 431 522 l 397 515 q 380 463 390 492 q 354 399 369 433 l 354 399 q 339 278 336 338 l 339 278 q 383 264 357 275 q 431 226 410 253 l 431 226 q 429 274 440 253 l 429 274 q 415 289 422 285 l 415 289 l 426 285 q 438 219 450 275 l 438 219 l 436 219 q 449 199 443 210 q 456 175 454 188 l 456 175 q 441 106 463 133 q 394 64 419 79 l 394 64 l 397 61 q 384 17 403 28 q 346 7 365 6 l 346 7 l 325 7 q 383 32 381 8 l 383 32 l 386 54 l 388 57 q 349 44 357 42 l 349 44 l 325 46 q 275 56 300 46 q 247 93 250 67 l 247 93 q 268 119 246 118 q 314 115 290 121 l 314 115 l 338 108 l 360 96 q 390 69 382 83 l 390 69 l 404 93 q 410 161 417 115 l 410 161 q 406 176 410 168 l 406 176 q 374 171 389 168 l 374 171 l 357 172 l 333 185 q 289 254 308 197 l 289 254 q 219 226 246 251 l 219 226 l 192 200 q 190 200 190 200 l 190 200 q 211 226 189 201 l 211 226 q 283 271 236 256 l 283 271 q 271 350 275 303 q 272 463 267 397 l 272 463 l 260 463 l 264 467 q 275 479 267 471 l 275 479 q 279 534 275 504 q 288 597 283 564 l 288 597 q 199 627 242 604 q 151 699 156 650 l 151 699 q 163 740 149 726 l 163 740 q 200 756 174 754 l 200 756 q 296 746 251 757 l 296 746 q 299 757 299 754 l 299 757 q 349 789 319 797 l 349 789 l 378 779 l 399 763 q 422 686 418 746 l 422 686 q 460 647 450 665 l 460 647 l 490 697 q 504 847 519 747 l 504 847 q 456 966 493 926 q 386 1019 418 1006 l 386 1019 l 353 1033 q 224 1047 283 1058 q 122 1010 165 1036 q 54 960 78 983 l 54 960 l 31 936 q 28 935 28 935 l 28 935 q 51 967 26 936 l 51 967 q 151 1050 83 1004 q 311 1107 218 1096 l 311 1107 q 392 1092 331 1110 q 517 1025 453 1075 q 607 876 581 975 z m 219 676 l 186 663 q 292 611 240 624 l 292 611 q 293 621 293 617 q 294 631 293 625 l 294 631 l 296 625 q 297 610 296 619 l 297 610 q 322 606 310 608 q 346 603 335 603 l 346 603 q 361 642 354 622 q 374 679 368 663 l 374 679 q 338 688 356 686 q 304 692 319 690 l 304 692 q 314 685 308 688 l 314 685 l 311 686 q 303 692 307 688 l 303 692 q 219 676 253 690 l 219 676 z m 303 89 l 263 76 q 350 51 318 38 l 350 51 l 382 64 q 303 89 343 100 l 303 89 z m 401 528 l 401 528 q 451 585 453 550 l 451 585 l 450 618 l 453 619 q 419 606 433 611 l 419 606 q 401 528 414 571 z m 307 754 l 307 754 q 305 750 306 753 q 303 744 304 747 l 303 744 q 335 736 322 740 l 335 736 l 347 732 l 356 728 q 376 717 364 724 l 376 717 q 347 775 376 756 l 347 775 l 335 775 q 307 754 322 775 z m 403 189 l 403 189 q 369 233 390 221 q 343 249 349 246 l 343 249 q 389 186 351 197 l 389 186 l 393 188 q 403 189 397 188 z m 333 578 l 339 590 q 322 592 331 592 q 303 594 313 593 l 303 594 q 325 564 310 576 l 325 564 q 333 578 329 571 l 333 578 z m 439 629 l 444 633 q 434 643 439 638 q 422 653 429 649 l 422 653 q 422 635 422 643 q 421 619 421 626 l 421 619 q 439 629 433 624 l 439 629 z m 415 289 l 415 289 l 403 294 q 415 289 408 294 z "},"!":{"ha":419,"x_min":18,"x_max":354,"o":"m 354 536 l 340 517 q 330 426 336 474 q 313 324 324 379 l 313 324 l 310 354 q 274 407 306 385 l 274 407 q 234 326 251 368 q 211 246 217 283 l 211 246 q 258 219 235 236 q 297 171 282 201 l 297 171 q 311 226 318 199 l 311 226 q 296 251 306 244 l 296 251 l 300 250 q 319 224 313 243 q 306 167 325 204 l 306 167 q 303 160 306 165 l 303 160 q 310 140 308 150 l 310 140 q 294 65 317 96 q 243 18 271 35 l 243 18 l 243 17 q 230 -31 250 -19 q 189 -42 210 -43 l 189 -42 l 167 -40 q 229 -14 226 -40 l 229 -14 l 232 11 l 233 13 q 207 1 219 4 q 192 -3 194 -3 l 192 -3 l 165 -1 q 112 11 139 0 q 82 51 85 22 l 82 51 q 105 80 81 78 q 156 75 129 82 l 156 75 l 181 68 l 204 54 q 236 25 226 40 l 236 25 l 251 50 q 258 126 265 75 l 258 126 l 258 128 q 222 132 238 125 l 222 132 l 207 138 l 186 154 q 154 225 165 171 l 154 225 q 58 201 94 232 l 58 201 l 21 169 q 19 169 19 168 l 19 169 q 50 203 18 169 l 50 203 q 150 253 86 240 l 150 253 q 163 394 146 306 q 236 617 181 482 l 236 617 q 256 783 257 703 q 193 885 254 864 l 193 885 l 176 882 q 143 842 160 878 l 143 842 q 143 778 126 807 l 143 778 q 167 750 154 757 l 167 750 l 161 753 q 133 777 144 757 q 133 843 122 797 l 133 843 q 170 897 144 886 q 214 904 196 907 l 214 904 q 160 922 190 922 l 160 922 q 78 881 115 924 q 19 768 40 838 l 19 768 q 80 910 38 854 q 175 965 122 967 l 175 965 q 264 917 224 965 q 322 792 304 869 l 322 792 q 342 690 335 751 q 342 538 349 628 l 342 538 q 348 537 344 538 q 354 536 351 536 l 354 536 z m 119 42 l 99 33 q 194 4 160 -10 l 194 4 l 229 18 q 170 47 200 46 q 119 42 140 49 l 119 42 z m 254 142 l 254 142 q 235 183 249 168 q 210 206 222 199 l 210 206 q 244 143 214 163 l 244 143 l 247 143 q 254 142 250 142 z m 296 251 l 296 251 l 288 257 q 296 251 293 256 z m 167 750 l 167 750 l 176 747 q 167 750 171 747 z "},".":{"ha":243,"x_min":0,"x_max":243,"o":"m 121 -3 l 121 -3 q 87 84 121 50 q 0 118 53 118 l 0 118 q 87 153 53 118 q 121 240 121 189 l 121 240 q 156 153 121 189 q 243 118 190 118 l 243 118 q 156 84 190 118 q 121 -3 121 50 z "},":":{"ha":243,"x_min":0,"x_max":243,"o":"m 121 -3 l 121 -3 q 87 84 121 50 q 0 118 53 118 l 0 118 q 87 153 53 118 q 121 240 121 189 l 121 240 q 156 153 121 189 q 243 118 190 118 l 243 118 q 156 84 190 118 q 121 -3 121 50 z m 121 453 l 121 453 q 87 540 121 506 q 0 574 53 574 l 0 574 q 87 609 53 574 q 121 696 121 644 l 121 696 q 156 609 121 644 q 243 574 190 574 l 243 574 q 156 540 190 574 q 121 453 121 506 z "},";":{"ha":344,"x_min":8,"x_max":347,"o":"m 39 -12 l 39 -12 q 19 -57 18 -28 l 19 -57 q 33 -94 22 -86 l 33 -94 l 44 -103 q 116 -54 92 -104 q 150 62 140 -4 q 161 179 160 128 l 161 179 l 161 229 q 239 211 211 201 q 279 242 267 221 l 279 242 l 290 261 q 222 23 260 104 q 149 -89 185 -58 q 92 -122 114 -119 l 92 -122 l 68 -125 l 53 -121 q 22 -103 36 -118 q 13 -57 8 -89 l 13 -57 q 46 0 19 -1 l 46 0 l 61 0 q 39 -12 51 -3 z m 225 453 l 225 453 q 191 540 225 506 q 104 574 157 574 l 104 574 q 191 609 157 574 q 225 696 225 644 l 225 696 q 260 609 225 644 q 347 574 294 574 l 347 574 q 260 540 294 574 q 225 453 225 506 z m 71 0 l 71 0 l 61 0 q 71 0 67 1 z "},",":{"ha":290,"x_min":8,"x_max":290,"o":"m 39 -104 l 39 -104 q 19 -149 18 -119 l 19 -149 q 33 -186 22 -178 l 33 -186 l 44 -194 q 116 -146 92 -196 q 150 -30 140 -96 q 161 88 160 36 l 161 88 l 161 138 q 239 119 211 110 q 279 150 267 129 l 279 150 l 290 169 q 222 -69 260 13 q 149 -181 185 -150 q 92 -214 114 -211 l 92 -214 l 68 -217 l 53 -212 q 22 -195 36 -210 q 13 -149 8 -181 l 13 -149 q 46 -92 19 -93 l 46 -92 l 61 -92 q 39 -104 51 -94 z m 71 -92 l 71 -92 l 61 -92 q 71 -92 67 -90 z "},"'":{"ha":185,"x_min":31,"x_max":143,"o":"m 119 1168 l 119 1168 q 122 1135 133 1143 l 122 1135 l 115 1131 q 122 1143 119 1135 l 122 1143 q 114 1168 125 1156 l 114 1168 q 99 1181 104 1181 l 99 1181 l 92 1179 q 76 1127 67 1165 q 103 1056 85 1089 l 103 1056 q 121 1081 118 1067 l 121 1081 l 122 1094 q 130 1047 126 1069 q 133 1006 133 1025 l 133 1006 q 142 1000 139 1001 l 142 1000 l 143 997 q 140 996 142 997 l 140 996 l 138 994 q 130 880 143 915 q 101 836 117 844 l 101 836 l 86 826 l 67 825 q 39 851 46 822 l 39 851 q 44 890 31 885 l 44 890 l 50 893 q 43 883 46 889 l 43 883 q 44 854 36 871 l 44 854 q 60 835 51 838 l 60 835 l 67 832 q 96 881 94 843 q 86 958 97 918 l 86 958 q 46 1106 46 1058 q 60 1168 46 1153 l 60 1168 l 72 1182 l 90 1188 q 119 1168 107 1193 z m 58 896 l 50 893 q 58 896 54 896 l 58 896 z m 111 1126 l 115 1131 q 111 1126 114 1128 l 111 1126 z "},"(":{"ha":368,"x_min":28,"x_max":382,"o":"m 114 67 l 125 72 q 129 628 28 343 l 129 628 q 118 632 125 632 l 118 632 l 124 636 q 138 647 129 640 l 138 647 q 211 814 164 715 l 211 814 l 208 785 q 226 728 204 756 l 226 728 q 320 849 281 783 q 321 958 360 915 l 321 958 l 308 964 q 267 949 294 968 l 267 949 q 242 903 240 931 l 242 903 q 246 876 242 886 l 246 876 l 236 889 q 260 954 219 911 l 260 954 q 306 977 285 979 q 342 965 328 975 l 342 965 l 356 954 l 369 935 q 381 867 382 914 q 343 738 381 819 q 204 531 306 656 l 204 531 q 180 485 190 508 q 160 440 169 463 l 160 440 q 196 436 176 443 q 232 401 215 429 l 232 401 q 238 392 235 397 l 238 392 l 242 383 q 253 352 250 372 q 238 297 257 332 l 238 297 q 194 261 218 265 q 154 263 171 257 l 154 263 q 174 215 163 239 q 199 171 186 192 l 199 171 q 338 -37 300 46 q 376 -167 375 -119 q 364 -233 376 -214 l 364 -233 l 351 -253 l 338 -264 q 302 -277 324 -275 q 256 -254 281 -279 l 256 -254 q 228 -206 228 -225 q 239 -176 229 -186 l 239 -176 l 243 -172 q 236 -203 236 -182 l 236 -203 q 263 -249 236 -229 l 263 -249 q 303 -262 289 -267 l 303 -262 l 317 -258 q 317 -149 357 -215 q 221 -28 276 -83 l 221 -28 q 204 -86 199 -57 l 204 -86 l 208 -115 q 165 -25 183 -67 q 132 53 147 17 l 132 53 q 119 64 124 60 l 119 64 l 114 67 z m 182 424 l 167 422 q 147 401 154 417 l 147 401 q 140 328 136 361 q 171 276 144 296 l 171 276 l 188 275 q 228 301 203 274 l 228 301 q 239 318 236 313 l 239 318 q 225 307 232 311 l 225 307 l 224 306 q 240 339 235 314 l 240 339 q 226 394 247 367 l 226 394 q 222 397 224 397 l 222 397 q 182 424 197 425 l 182 424 z m 246 876 l 246 876 l 253 867 q 246 876 249 869 z m 249 -168 l 243 -172 q 249 -168 246 -169 l 249 -168 z m 226 394 l 226 394 q 225 395 225 394 q 222 396 225 396 l 222 396 l 224 396 q 226 394 225 396 z m 218 303 l 224 306 q 218 303 221 304 l 218 303 z "},")":{"ha":368,"x_min":101,"x_max":456,"o":"m 369 631 l 358 625 q 354 69 456 354 l 354 69 q 365 65 358 65 l 365 65 l 360 61 q 346 50 354 57 l 346 50 q 272 -117 319 -18 l 272 -117 l 276 -87 q 257 -31 281 -58 l 257 -31 q 163 -151 203 -86 q 163 -261 124 -217 l 163 -261 l 176 -265 q 217 -251 190 -269 l 217 -251 q 243 -204 244 -232 l 243 -204 q 238 -179 242 -187 l 238 -179 l 247 -190 q 224 -257 264 -212 l 224 -257 q 178 -280 200 -282 q 142 -267 156 -278 l 142 -267 l 128 -257 l 115 -236 q 102 -169 101 -217 q 140 -40 103 -122 q 279 167 178 42 l 279 167 q 303 213 293 190 q 324 257 314 235 l 324 257 q 288 263 307 256 q 251 296 268 269 l 251 296 q 247 306 249 300 q 242 314 244 311 l 242 314 q 231 345 233 325 q 246 400 228 365 l 246 400 q 289 437 265 432 q 329 435 313 442 l 329 435 q 309 482 321 458 q 285 526 297 506 l 285 526 q 146 734 183 651 q 108 864 108 817 q 119 931 107 911 l 119 931 l 132 950 l 146 961 q 182 975 160 972 q 228 951 204 978 l 228 951 q 255 903 256 922 q 244 875 254 885 l 244 875 l 240 871 q 247 901 247 881 l 247 901 q 221 946 247 928 l 221 946 q 181 961 194 965 l 181 961 l 167 956 q 167 847 128 913 q 263 725 207 781 l 263 725 q 281 783 285 754 l 281 783 l 275 813 q 319 723 300 765 q 351 644 338 681 l 351 644 q 365 635 360 639 l 365 635 l 369 631 z m 301 274 l 317 275 q 336 296 329 281 l 336 296 q 344 369 347 336 q 313 421 340 403 l 313 421 l 297 422 q 256 396 281 424 l 256 396 q 244 379 247 385 l 244 379 q 258 390 251 386 l 258 390 q 243 360 249 382 l 243 360 q 257 303 236 331 l 257 303 q 261 300 260 300 l 261 300 q 301 274 286 272 l 301 274 z m 238 -179 l 238 -179 l 231 -169 q 238 -179 235 -172 z m 258 390 l 258 390 q 265 394 261 393 l 265 394 l 258 390 q 258 390 258 390 z m 235 865 l 240 871 q 235 865 238 868 l 235 865 z m 257 303 l 257 303 q 259 302 258 303 q 261 301 260 301 l 261 301 l 260 301 q 257 303 258 301 z "},"-":{"ha":704,"x_min":93,"x_max":633,"o":"m 503 393 l 503 393 l 233 393 q 165 378 171 393 l 165 378 l 160 363 l 93 429 l 160 496 l 164 481 q 232 465 168 464 l 232 465 l 501 464 l 535 467 q 568 494 568 468 l 568 494 l 633 428 l 568 361 l 565 378 q 503 393 561 393 z "}}}
